<svg xmlns="http://www.w3.org/2000/svg" xmlns:xlink="http://www.w3.org/1999/xlink" width="391.529" height="391.529" viewBox="0 0 391.529 391.529">
  <defs>
    <clipPath id="clip-path">
      <rect id="Rectangle_3953" data-name="Rectangle 3953" width="391.529" height="391.529" transform="translate(730.781 185)" fill="#fff"/>
    </clipPath>
  </defs>
  <g id="Virtual_Box_Office" data-name="Virtual Box Office" transform="translate(-730.781 -185)" clip-path="url(#clip-path)">
    <g id="Layer_2" data-name="Layer 2" transform="translate(730.783 206.84)">
      <g id="Layer_1" data-name="Layer 1" transform="translate(0 -16)">
        <g id="freepik--background-complete--inject-159">
          <path id="Path_8882" data-name="Path 8882" d="M237.161,126.306a6.074,6.074,0,0,1-.857,1c-.556.588-1.342,1.382-2.215,2.247s-1.683,1.628-2.279,2.176a5.677,5.677,0,0,1-1.008.842,5.439,5.439,0,0,1,.857-1c.556-.588,1.342-1.382,2.223-2.247s1.683-1.636,2.279-2.183a5.56,5.56,0,0,1,1-.834Z" fill="#e0e0e0"/>
          <path id="Path_8883" data-name="Path 8883" d="M272,126.243a5.717,5.717,0,0,1,1,.858c.588.556,1.382,1.342,2.247,2.215s1.636,1.683,2.176,2.279a5.977,5.977,0,0,1,.842,1,5.351,5.351,0,0,1-.992-.85c-.588-.556-1.389-1.342-2.255-2.223s-1.636-1.683-2.183-2.279a5.868,5.868,0,0,1-.834-1Z" fill="#e0e0e0"/>
          <rect id="Rectangle_3954" data-name="Rectangle 3954" width="7.17" height="35.658" transform="translate(267.257 14.385) rotate(-0.31)" fill="#ddd"/>
          <rect id="Rectangle_3955" data-name="Rectangle 3955" width="18.555" height="19.683" transform="translate(205.177 14.531) rotate(-0.31)" fill="#ebebeb"/>
          <rect id="Rectangle_3956" data-name="Rectangle 3956" width="18.555" height="19.683" transform="translate(223.652 14.431) rotate(-0.31)" fill="#f5f5f5"/>
          <path id="Path_8884" data-name="Path 8884" d="M205.212,20q18.508.143,37.031-.175a.2.2,0,0,0,0-.389q-18.508-.119-37.031.222a.175.175,0,0,0,0,.341Z" fill="#e0e0e0"/>
          <rect id="Rectangle_3957" data-name="Rectangle 3957" width="33.712" height="16.038" transform="translate(193.61 33.982) rotate(-0.31)" fill="#ebebeb"/>
          <rect id="Rectangle_3958" data-name="Rectangle 3958" width="33.712" height="16.038" transform="translate(227.163 33.785) rotate(-0.31)" fill="#f5f5f5"/>
          <path id="Path_8885" data-name="Path 8885" d="M193.628,38.484c22.4.254,44.868,0,67.266-.333a.2.2,0,0,0,0-.389c-22.4-.119-44.876-.1-67.274.389a.167.167,0,0,0-.167.167.183.183,0,0,0,.167.167Z" fill="#e0e0e0"/>
          <rect id="Rectangle_3959" data-name="Rectangle 3959" width="130.625" height="5.748" transform="translate(181.019 50.044)" fill="#e0e0e0"/>
          <rect id="Rectangle_3960" data-name="Rectangle 3960" width="5.304" height="19.611" transform="translate(202.401 52.808)" fill="#e0e0e0"/>
          <rect id="Rectangle_3961" data-name="Rectangle 3961" width="5.304" height="19.611" transform="translate(281.561 52.808)" fill="#e0e0e0"/>
          <rect id="Rectangle_3962" data-name="Rectangle 3962" width="7.17" height="49.044" transform="translate(274.251 1.08) rotate(-0.31)" fill="#ebebeb"/>
          <rect id="Rectangle_3963" data-name="Rectangle 3963" width="11.132" height="39.739" transform="translate(281.478 10.243) rotate(-0.31)" fill="#f5f5f5"/>
          <path id="Path_8886" data-name="Path 8886" d="M292.549,17.841a78.691,78.691,0,0,1-11.116,0,81.143,81.143,0,0,1,11.116,0Z" fill="#e0e0e0"/>
          <path id="Path_8887" data-name="Path 8887" d="M292.549,16.189a81.144,81.144,0,0,1-11.116,0A81.144,81.144,0,0,1,292.549,16.189Z" fill="#e0e0e0"/>
          <path id="Path_8888" data-name="Path 8888" d="M292.549,43.963a78.691,78.691,0,0,1-11.116,0,81.143,81.143,0,0,1,11.116,0Z" fill="#e0e0e0"/>
          <path id="Path_8889" data-name="Path 8889" d="M292.549,42.3a81.144,81.144,0,0,1-11.116,0,81.142,81.142,0,0,1,11.116,0Z" fill="#e0e0e0"/>
          <path id="Path_8890" data-name="Path 8890" d="M287.142,38.651c-.1,0-.191-3.97-.191-8.948s.087-8.956.191-8.956.191,3.97.191,8.956S287.246,38.651,287.142,38.651Z" fill="#e0e0e0"/>
          <rect id="Rectangle_3964" data-name="Rectangle 3964" width="12.116" height="29.997" transform="translate(292.653 19.961)" fill="#ebebeb"/>
          <path id="Path_8891" data-name="Path 8891" d="M279.782,9.448a2.064,2.064,0,1,1-2.064-2.064h0a2.048,2.048,0,0,1,2.064,2.048Z" fill="#e0e0e0"/>
          <rect id="Rectangle_3965" data-name="Rectangle 3965" width="1.27" height="29.171" transform="translate(277.083 15.109)" fill="#e0e0e0"/>
        </g>
        <g id="freepik--Floor--inject-159">
          <path id="Path_8892" data-name="Path 8892" d="M391.527,341.816c0,.119-87.211.206-194.771.206s-194.787-.087-194.787-.206,87.195-.206,194.787-.206S391.527,341.7,391.527,341.816Z" fill="#263238"/>
        </g>
        <g id="freepik--Device--inject-155">
          <path id="Path_8893" data-name="Path 8893" d="M128.4,31.87H112.951a3.756,3.756,0,0,0-3.74,3.779h0v2.707a3.756,3.756,0,0,1-3.748,3.771H75.428a3.779,3.779,0,0,1-3.748-3.779V35.626a3.787,3.787,0,0,0-3.74-3.787H48.981A11.91,11.91,0,0,0,36.849,43.558h0v188.03a11.91,11.91,0,0,0,12.14,11.719l79.4.048a11.91,11.91,0,0,0,12.148-11.719V43.605A11.91,11.91,0,0,0,128.41,31.87Z" fill="#fff"/>
          <path id="Path_8894" data-name="Path 8894" d="M128.4,31.87h.413a7.94,7.94,0,0,1,1.231.1,12.156,12.156,0,0,1,7.313,3.684,11.679,11.679,0,0,1,2.311,3.5,11.806,11.806,0,0,1,.905,4.764V231.27a12.1,12.1,0,0,1-.461,3.573,11.957,11.957,0,0,1-1.588,3.3,12.8,12.8,0,0,1-2.533,2.707,12.529,12.529,0,0,1-6.971,2.652c-2.541.071-5.074,0-7.63,0H49.854a13.108,13.108,0,0,1-7.94-2.128,12.013,12.013,0,0,1-4.78-6.36,12.64,12.64,0,0,1-.508-3.97V43.756a9.471,9.471,0,0,1,.071-1.421,6.352,6.352,0,0,1,.246-1.4,11.807,11.807,0,0,1,2.557-4.97,12.5,12.5,0,0,1,9.893-4.256h18.2a3.89,3.89,0,0,1,3.867,2.525,5.987,5.987,0,0,1,.238,2.31V37.69a8.8,8.8,0,0,0,.04,1.12,3.692,3.692,0,0,0,.905,1.961,3.6,3.6,0,0,0,1.89,1.135,4.343,4.343,0,0,0,1.1.111h30.29a3.517,3.517,0,0,0,1.485-.532,3.732,3.732,0,0,0,1.707-2.382,6.55,6.55,0,0,0,.087-1.421V36.34a7.876,7.876,0,0,1,.071-1.366,3.97,3.97,0,0,1,.453-1.254,3.827,3.827,0,0,1,1.937-1.659,6.2,6.2,0,0,1,2.382-.238h0a5.955,5.955,0,0,0-2.382.246,3.668,3.668,0,0,0-1.874,1.588,3.771,3.771,0,0,0-.445,1.223,8.494,8.494,0,0,0-.064,1.35v1.405a5.875,5.875,0,0,1-.087,1.445,3.835,3.835,0,0,1-3.3,3c-.548.048-1.1,0-1.651,0H75.658a4.645,4.645,0,0,1-1.143-.1,3.89,3.89,0,0,1-2.922-3.239,11,11,0,0,1,0-1.143V36.579a5.828,5.828,0,0,0-.23-2.247,3.668,3.668,0,0,0-3.668-2.382H49.473A12.267,12.267,0,0,0,39.8,36.094a11.56,11.56,0,0,0-2.485,4.875c-.119.453-.151.913-.238,1.374a8.956,8.956,0,0,0-.064,1.389V231a12.084,12.084,0,0,0,.492,3.875,11.632,11.632,0,0,0,4.684,6.233,12.751,12.751,0,0,0,7.717,2.056h79.176a12.243,12.243,0,0,0,6.828-2.557,12.7,12.7,0,0,0,2.461-2.636,11.466,11.466,0,0,0,1.509-3.176,12.054,12.054,0,0,0,.46-3.486V213.676c0-36.92,0-70.18.056-98.1s.048-50.521.071-66.146V43.867a11.489,11.489,0,0,0-3.112-8.138,12.307,12.307,0,0,0-7.265-3.724,10.6,10.6,0,0,0-1.223-.111Z" fill="#263238"/>
          <path id="Path_8895" data-name="Path 8895" d="M130.744,50.862c0,.056-2,.1-4.478.127s-4.478,0-4.478-.056,2-.119,4.454-.119S130.744,50.815,130.744,50.862Z" fill="#263238"/>
          <path id="Path_8896" data-name="Path 8896" d="M130.768,53.077c0,.048-2.009.111-4.486.127s-4.478,0-4.478-.056,2.009-.111,4.478-.127S130.768,53.022,130.768,53.077Z" fill="#263238"/>
          <path id="Path_8897" data-name="Path 8897" d="M130.808,55.293c0,.048-2.009.111-4.486.127s-4.478,0-4.478-.056,2-.1,4.478-.127S130.808,55.245,130.808,55.293Z" fill="#263238"/>
          <path id="Path_8898" data-name="Path 8898" d="M49.227,57.818h2.612l-.048.048V55.713a.746.746,0,0,1,.643-.572h.921a.738.738,0,0,1,.619.715v1.961l-.087-.087h2.382l-.1.087V54.173a.707.707,0,0,0-.333-.532l-1.056-1.008-1.016-.969-.5-.468a1.032,1.032,0,0,0-.492-.365.659.659,0,0,0-.556.1c-.143.119-.3.294-.453.429L50.9,52.2c-.548.532-1.1,1.064-1.516,1.517a1.588,1.588,0,0,0-.127.873v3.3a1.588,1.588,0,0,1,0-.278c0-.23,0-.5,0-.794V54.141a.969.969,0,0,1,.135-.484c.453-.532.977-.992,1.532-1.588l.857-.857a6.144,6.144,0,0,1,.461-.437.794.794,0,0,1,.707-.135,1.334,1.334,0,0,1,.58.4l.492.468,1.024.969,1.056,1a1.834,1.834,0,0,1,.27.286.794.794,0,0,1,.127.389V57.96H53.911V55.88a.564.564,0,0,0-.484-.564h-.881a.572.572,0,0,0-.516.453V57.9h-2.5A.794.794,0,0,1,49.227,57.818Z" fill="#263238"/>
          <path id="Path_8899" data-name="Path 8899" d="M83.757,63.272c0,.619-.5.977-1.477.977H80.367V60.676h1.8c.929,0,1.405.373,1.405.929a.865.865,0,0,1-.492.794A.873.873,0,0,1,83.757,63.272ZM81.216,61.3v.842h.85c.421,0,.643-.143.643-.429s-.222-.413-.643-.413Zm1.659,1.882c0-.294-.238-.437-.691-.437h-.992v.881h.992c.476,0,.715-.135.715-.445Z" fill="#263238"/>
          <path id="Path_8900" data-name="Path 8900" d="M84.162,62.883a1.588,1.588,0,1,1,1.667,1.405H85.75a1.445,1.445,0,0,1-1.588-1.318Zm2.295,0a.723.723,0,0,0-.794-.651.707.707,0,0,0-.667.794.723.723,0,0,0,.73.651.707.707,0,0,0,.723-.7Z" fill="#263238"/>
          <path id="Path_8901" data-name="Path 8901" d="M87.608,62.883A1.524,1.524,0,0,1,89.061,61.3,1.54,1.54,0,0,1,90.728,62.7a1.524,1.524,0,0,1-1.453,1.588h-.111a1.445,1.445,0,0,1-1.588-1.31Zm2.287,0a.723.723,0,0,0-.794-.651.715.715,0,0,0-.675.794.73.73,0,0,0,1.453,0v-.143Z" fill="#263238"/>
          <path id="Path_8902" data-name="Path 8902" d="M92.5,63.169l-.4.349v.7h-.794V60.461H92.1v2.128l1.207-1.1h.985L93.1,62.653,94.4,64.241h-1Z" fill="#263238"/>
          <path id="Path_8903" data-name="Path 8903" d="M94.642,60.676a.468.468,0,0,1,.484-.445h0a.461.461,0,0,1,.508.4h0a.516.516,0,0,1-1.024,0Zm.1.794h.794v2.747h-.794Z" fill="#263238"/>
          <path id="Path_8904" data-name="Path 8904" d="M99.247,62.677v1.588h-.794V62.828c0-.445-.206-.643-.548-.643a.667.667,0,0,0-.7.715v1.35h-.794V61.5h.794v.326a1.223,1.223,0,0,1,.937-.365,1.088,1.088,0,0,1,1.1.977A.794.794,0,0,1,99.247,62.677Z" fill="#263238"/>
          <path id="Path_8905" data-name="Path 8905" d="M102.955,61.5v2.287c0,1.024-.556,1.493-1.588,1.493a2.382,2.382,0,0,1-1.389-.381l.326-.564a1.818,1.818,0,0,0,1.008.31.694.694,0,0,0,.794-.794v-.119a1.183,1.183,0,0,1-.9.341,1.334,1.334,0,1,1,0-2.66h0a1.159,1.159,0,0,1,.937.389v-.349Zm-.794,1.286a.738.738,0,0,0-.7-.794.794.794,0,0,0-.794.675.738.738,0,0,0,.7.794h.056a.667.667,0,0,0,.738-.611.151.151,0,0,0-.032-.064Z" fill="#263238"/>
          <path id="Path_8906" data-name="Path 8906" d="M109.156,113.444l.254.492.556.079-.4.381.087.54-.5-.254-.5.254.1-.54-.4-.381.564-.079Z" fill="#f55a66"/>
          <path id="Path_8907" data-name="Path 8907" d="M111.34,113.444l.254.492.556.079-.4.381.1.54-.508-.254-.5.254.1-.54-.413-.381.564-.079Z" fill="#f55a66"/>
          <path id="Path_8908" data-name="Path 8908" d="M113.523,113.444l.254.492.556.079-.4.381.1.54-.508-.254-.5.254.1-.54-.413-.381.564-.079Z" fill="#f55a66"/>
          <path id="Path_8909" data-name="Path 8909" d="M115.714,113.444l.254.492.556.079-.4.381.1.54-.5-.254-.508.254.1-.54-.413-.381.564-.079Z" fill="#f55a66"/>
          <path id="Path_8910" data-name="Path 8910" d="M117.9,113.444l.254.492.556.079-.4.381.1.54-.5-.254-.508.254.1-.54-.4-.381.556-.079Z" fill="#f55a66"/>
          <path id="Path_8911" data-name="Path 8911" d="M112.745,118.8c0,.079-5.288.143-11.814.143s-11.814-.064-11.814-.143,5.288-.135,11.814-.135S112.745,118.732,112.745,118.8Z" fill="#e0e0e0"/>
          <path id="Path_8912" data-name="Path 8912" d="M131.364,122.678c0,.071-9.575.135-21.366.135s-21.366-.064-21.366-.135,9.528-.143,21.366-.143S131.364,122.59,131.364,122.678Z" fill="#263238"/>
          <path id="Path_8913" data-name="Path 8913" d="M110.045,126.64c0,.071-4.7.135-10.481.135s-10.481-.064-10.481-.135,4.692-.135,10.481-.135S110.045,126.56,110.045,126.64Z" fill="#263238"/>
          <path id="Path_8914" data-name="Path 8914" d="M91.562,130.872h18.3a3.263,3.263,0,0,1,3.311,3.176V135.3a3.255,3.255,0,0,1-3.311,3.176h-18.3a3.255,3.255,0,0,1-3.319-3.176v-1.254A3.263,3.263,0,0,1,91.562,130.872Z" fill="#f55a66"/>
          <path id="Path_8915" data-name="Path 8915" d="M98.739,135.032c0,.365-.294.58-.857.58H96.81v-2.168h1.008c.516,0,.794.214.794.564a.544.544,0,0,0,.127,1.024ZM97.151,133.7v.691h.667c.326,0,.508-.119.508-.341s-.183-.349-.508-.349Zm1.3,1.278c0-.246-.183-.357-.548-.357h-.738v.73h.738C98.231,135.373,98.453,135.254,98.453,134.976Z" fill="#fff"/>
          <path id="Path_8916" data-name="Path 8916" d="M99.033,134.786a.889.889,0,0,1,1.779,0,.873.873,0,0,1-.873.873h0a.794.794,0,0,1-.889-.794Zm1.453,0a.572.572,0,1,0-.564.556.556.556,0,0,0,.564-.556Z" fill="#fff"/>
          <path id="Path_8917" data-name="Path 8917" d="M101.073,134.786a.881.881,0,1,1,.9.842h0a.794.794,0,0,1-.881-.794Zm1.453,0a.572.572,0,1,0-.572.556.556.556,0,0,0,.572-.556Z" fill="#fff"/>
          <path id="Path_8918" data-name="Path 8918" d="M103.924,134.841l-.349.318v.445h-.31v-2.295h.31v1.477l.921-.794h.389l-.715.675.794.961h-.381Z" fill="#fff"/>
          <path id="Path_8919" data-name="Path 8919" d="M133.484,143.964a4.762,4.762,0,0,0,.675-.1,2.8,2.8,0,0,0,1.588-1.064,2.517,2.517,0,0,0,.461-1.318v-6.01c0-6.463,0-15.8-.048-27.345a3.176,3.176,0,0,0-.1-1.064,2.525,2.525,0,0,0-.5-.945,2.684,2.684,0,0,0-1.937-.937H44.788a2.636,2.636,0,0,0-2.469,1.691,4.033,4.033,0,0,0-.159,1.588v33.006a2.557,2.557,0,0,0,1.659,2.168,2.636,2.636,0,0,0,.7.167H94.793l28.3.056h0l-28.321.048H44.463a2.923,2.923,0,0,1-.794-.183,2.827,2.827,0,0,1-1.826-2.382V107.6a2.739,2.739,0,0,1,.175-.842,2.922,2.922,0,0,1,2.755-1.882h88.846a2.938,2.938,0,0,1,2.08,1.024,2.731,2.731,0,0,1,.556,1.008,3.676,3.676,0,0,1,.1,1.1c0,11.544,0,20.882-.048,27.345v6.018a2.692,2.692,0,0,1-2.112,2.382,1.825,1.825,0,0,1-.508.071Z" fill="#f55a66"/>
          <path id="Path_8920" data-name="Path 8920" d="M109.156,157.414l.246.492.564.071-.4.389.1.54-.5-.262-.5.262.1-.54-.4-.389.556-.071Z" fill="#f55a66"/>
          <path id="Path_8921" data-name="Path 8921" d="M111.34,157.414l.254.492.556.071-.4.389.1.54-.508-.262-.5.262.1-.54-.4-.389.556-.071Z" fill="#f55a66"/>
          <path id="Path_8922" data-name="Path 8922" d="M113.523,157.414l.254.492.556.071-.4.389.1.54-.508-.262-.5.262.1-.54-.4-.389.556-.071Z" fill="#f55a66"/>
          <path id="Path_8923" data-name="Path 8923" d="M115.714,157.414l.246.492.564.071-.413.389.1.54-.5-.262-.508.262.1-.54-.4-.389.564-.071Z" fill="#e0e0e0"/>
          <path id="Path_8924" data-name="Path 8924" d="M117.9,157.414l.246.492.564.071-.413.389.1.54-.5-.262-.508.262.1-.54-.4-.389.556-.071Z" fill="#e0e0e0"/>
          <path id="Path_8925" data-name="Path 8925" d="M111.745,162.766c0,.079-5.288.135-11.806.135s-11.806-.048-11.806-.135,5.288-.143,11.814-.143S111.745,162.694,111.745,162.766Z" fill="#e0e0e0"/>
          <path id="Path_8926" data-name="Path 8926" d="M130.355,166.64c0,.079-9.528.143-21.358.143s-21.366-.064-21.366-.143,9.528-.135,21.366-.135S130.355,166.561,130.355,166.64Z" fill="#263238"/>
          <path id="Path_8927" data-name="Path 8927" d="M109.029,170.61c0,.071-4.692.135-10.481.135s-10.481-.064-10.481-.135,4.692-.143,10.481-.143S109.029,170.531,109.029,170.61Z" fill="#263238"/>
          <path id="Path_8928" data-name="Path 8928" d="M108.847,182.5a3.621,3.621,0,0,0,2.128-.794,3.081,3.081,0,0,0,1.1-2.3V177.74a3.12,3.12,0,0,0-.73-1.651,3.239,3.239,0,0,0-1.715-1.024,3.969,3.969,0,0,0-1.1-.087H90.569a3.176,3.176,0,0,0-3.112,2.477,8.2,8.2,0,0,0-.064,1.4,4.248,4.248,0,0,0,.143,1.342,3.176,3.176,0,0,0,3.009,2.168h9.528l6.431.04h0l-6.431.048H90.545a3.438,3.438,0,0,1-3.263-2.382,4.1,4.1,0,0,1-.159-1.421,8.1,8.1,0,0,1,.064-1.453,3.311,3.311,0,0,1,.635-1.366,3.486,3.486,0,0,1,2.755-1.334h17.96a4.352,4.352,0,0,1,1.151.1,3.446,3.446,0,0,1,1.826,1.112,3.3,3.3,0,0,1,.754,1.755c0,.611,0,1.151,0,1.675a3.239,3.239,0,0,1-1.2,2.382,3.4,3.4,0,0,1-1.588.707,4.359,4.359,0,0,1-.453,0A.683.683,0,0,1,108.847,182.5Z" fill="#f55a66"/>
          <path id="Path_8929" data-name="Path 8929" d="M97.715,178.987c0,.373-.294.588-.857.588H95.786v-2.168h1c.524,0,.794.214.794.532a.524.524,0,0,1-.3.484.532.532,0,0,1,.437.564Zm-1.588-1.326v.7h.659c.326,0,.508-.127.508-.357s-.183-.341-.508-.341Zm1.286,1.31c0-.254-.191-.365-.548-.365h-.794v.723h.794c.373,0,.564-.111.564-.357Z" fill="#f55a66"/>
          <path id="Path_8930" data-name="Path 8930" d="M98.025,178.756a.881.881,0,1,1,.889.842h0a.794.794,0,0,1-.889-.794Zm1.453,0a.572.572,0,1,0-.572.556A.564.564,0,0,0,99.478,178.756Z" fill="#f55a66"/>
          <path id="Path_8931" data-name="Path 8931" d="M100.041,178.756a.889.889,0,1,1,.9.842h0a.794.794,0,0,1-.889-.794Zm1.461,0a.572.572,0,1,0-.572.548.564.564,0,0,0,.588-.548Z" fill="#f55a66"/>
          <path id="Path_8932" data-name="Path 8932" d="M102.908,178.812l-.349.318v.461h-.3v-2.3h.3v1.477l.929-.794h.373l-.715.675.794.969h-.381Z" fill="#f55a66"/>
          <path id="Path_8933" data-name="Path 8933" d="M109.156,201.091l.246.492.564.071-.4.381.1.54-.5-.254-.5.254.1-.54-.4-.381.556-.071Z" fill="#f55a66"/>
          <path id="Path_8934" data-name="Path 8934" d="M111.34,201.091l.254.492.556.071-.4.381.1.54-.508-.254-.5.254.1-.54-.4-.381.564-.071Z" fill="#f55a66"/>
          <path id="Path_8935" data-name="Path 8935" d="M113.523,201.091l.254.492.556.071-.4.381.1.54-.508-.254-.5.254.1-.54-.413-.381.564-.071Z" fill="#e0e0e0"/>
          <path id="Path_8936" data-name="Path 8936" d="M115.714,201.091l.246.492.564.071-.413.381.1.54-.5-.254-.508.254.1-.54-.413-.381.564-.071Z" fill="#e0e0e0"/>
          <path id="Path_8937" data-name="Path 8937" d="M117.9,201.091l.246.492.564.071-.4.381.1.54-.5-.254-.508.254.1-.54-.4-.381.556-.071Z" fill="#e0e0e0"/>
          <path id="Path_8938" data-name="Path 8938" d="M112.173,206.434c0,.071-5.288.135-11.814.135s-11.814-.064-11.814-.135,5.288-.143,11.814-.143S112.173,206.371,112.173,206.434Z" fill="#e0e0e0"/>
          <path id="Path_8939" data-name="Path 8939" d="M130.808,210.317c0,.071-9.567.135-21.366.135s-21.366-.064-21.366-.135,9.528-.135,21.366-.135S130.808,210.246,130.808,210.317Z" fill="#263238"/>
          <path id="Path_8940" data-name="Path 8940" d="M109.45,214.279c0,.079-4.7.143-10.481.143s-10.481-.064-10.481-.143,4.692-.135,10.481-.135S109.45,214.208,109.45,214.279Z" fill="#263238"/>
          <path id="Path_8941" data-name="Path 8941" d="M109.3,226.173a3.176,3.176,0,0,0,.6-.087,3.343,3.343,0,0,0,1.516-.73,3.1,3.1,0,0,0,1.1-2.311c0-.532,0-1.064,0-1.651a3.176,3.176,0,0,0-2.453-2.668,4.637,4.637,0,0,0-1.1-.079H90.99a3.176,3.176,0,0,0-2.533,1.223,2.843,2.843,0,0,0-.58,1.254,7.462,7.462,0,0,0-.064,1.4,4.1,4.1,0,0,0,.135,1.35,3.3,3.3,0,0,0,.667,1.135A3.231,3.231,0,0,0,91,226.03h9.528l6.431.048h2.382a.485.485,0,0,1-.151,0h-2.207l-6.431.048H91.022a3.478,3.478,0,0,1-2.533-1.1,3.358,3.358,0,0,1-.73-1.231,3.97,3.97,0,0,1-.151-1.429,7.4,7.4,0,0,1,.056-1.453,3.438,3.438,0,0,1,3.4-2.7h17.952a4.766,4.766,0,0,1,1.159.1,3.335,3.335,0,0,1,2.572,2.874v1.675a3.287,3.287,0,0,1-2.787,3.089,2.183,2.183,0,0,1-.453.04A.6.6,0,0,1,109.3,226.173Z" fill="#f55a66"/>
          <path id="Path_8942" data-name="Path 8942" d="M98.152,222.671c0,.365-.294.58-.857.58H96.222v-2.168h1.008c.508,0,.794.214.794.564a.5.5,0,0,1-.3.476A.54.54,0,0,1,98.152,222.671Zm-1.588-1.334v.691h.659c.326,0,.508-.119.508-.341s-.183-.349-.508-.349Zm1.286,1.3c0-.246-.191-.357-.556-.357h-.738V223h.738c.365,0,.556-.1.556-.357Z" fill="#f55a66"/>
          <path id="Path_8943" data-name="Path 8943" d="M98.453,222.433a.885.885,0,1,1,.905.873h0a.834.834,0,0,1-.889-.794Zm1.453,0a.54.54,0,0,0-.6-.484.532.532,0,0,0-.5.58.564.564,0,0,0,1.12,0v-.071Z" fill="#f55a66"/>
          <path id="Path_8944" data-name="Path 8944" d="M100.47,222.433a.889.889,0,1,1,.905.873h0a.85.85,0,0,1-.889-.794Zm1.461,0a.572.572,0,1,0-.572.548.564.564,0,0,0,.572-.548Z" fill="#f55a66"/>
          <path id="Path_8945" data-name="Path 8945" d="M103.336,222.489l-.357.318v.461h-.3v-2.295h.31v1.477l.929-.794h.365l-.715.683.794.961h-.381Z" fill="#f55a66"/>
          <path id="Path_8946" data-name="Path 8946" d="M53.411,70.664h70.156a3.851,3.851,0,0,1,3.914,3.779v3.8a3.851,3.851,0,0,1-3.922,3.779H53.411A3.843,3.843,0,0,1,49.5,78.239V74.483a3.851,3.851,0,0,1,3.906-3.819Z" fill="#f4f4f4"/>
          <path id="Path_8947" data-name="Path 8947" d="M121.431,75.634a1.167,1.167,0,0,0-.087-.373,1.588,1.588,0,0,0-1.961-1.064h-.1a1.485,1.485,0,0,0-.921,1.921,1.588,1.588,0,0,0,1.985.889,1.5,1.5,0,0,0,.4-.206,1.588,1.588,0,0,0,.6-.794c.071-.238.071-.373.087-.373s0,0,0,.1a.906.906,0,0,1,0,.294,1.54,1.54,0,0,1-.588.905,1.739,1.739,0,0,1-2.382-.294,1.588,1.588,0,0,1,.31-2.3,1.755,1.755,0,0,1,2.072,0,1.54,1.54,0,0,1,.588.905.921.921,0,0,1,0,.294C121.479,75.595,121.479,75.634,121.431,75.634Z" fill="#263238"/>
          <path id="Path_8948" data-name="Path 8948" d="M122.344,78.334a5.828,5.828,0,0,1-1.453-1.517,2.946,2.946,0,0,1,.794.7A3.176,3.176,0,0,1,122.344,78.334Z" fill="#263238"/>
          <path id="Path_8949" data-name="Path 8949" d="M68.592,76.222a.183.183,0,0,1,.191-.191h0a.175.175,0,0,1,.2.175h0a.183.183,0,0,1-.191.2h0A.2.2,0,0,1,68.592,76.222Zm0,1.167a.183.183,0,0,1,.191-.191h0a.175.175,0,0,1,.2.175h0a.191.191,0,0,1-.183.206h0a.206.206,0,0,1-.206-.2h0Z" fill="#263238"/>
          <path id="Path_8950" data-name="Path 8950" d="M106.123,76.873c0,.071-7.733.135-17.285.135s-17.285-.064-17.285-.135,7.741-.135,17.285-.135S106.123,76.786,106.123,76.873Z" fill="#263238"/>
          <path id="Path_8951" data-name="Path 8951" d="M53.411,85.956h70.156a3.851,3.851,0,0,1,3.914,3.771v3.8a3.843,3.843,0,0,1-3.914,3.771H53.411A3.843,3.843,0,0,1,49.5,93.531V89.72A3.851,3.851,0,0,1,53.411,85.956Z" fill="#f4f4f4"/>
          <path id="Path_8952" data-name="Path 8952" d="M121.431,91.411a1.151,1.151,0,0,0-.087-.365,1.524,1.524,0,0,0-.6-.794,1.588,1.588,0,0,0-2.168.3,1.453,1.453,0,0,0,.31,2.088,1.588,1.588,0,0,0,1.858,0,1.509,1.509,0,0,0,.6-.794c.071-.23.071-.381.087-.381s0,.04,0,.1a.905.905,0,0,1,0,.294,1.54,1.54,0,0,1-.588.905,1.707,1.707,0,0,1-1.588.254,1.588,1.588,0,0,1-1.04-2.1,1.659,1.659,0,0,1,1.04-1.008,1.723,1.723,0,0,1,1.667.238,1.532,1.532,0,0,1,.58.905,1.167,1.167,0,0,1,0,.286C121.479,91.379,121.479,91.411,121.431,91.411Z" fill="#263238"/>
          <path id="Path_8953" data-name="Path 8953" d="M122.344,94.126a3.358,3.358,0,0,1-.794-.707,3.176,3.176,0,0,1-.659-.794,3.112,3.112,0,0,1,.794.707,2.961,2.961,0,0,1,.659.794Z" fill="#263238"/>
          <path id="Path_8954" data-name="Path 8954" d="M68.584,90.911a.206.206,0,0,1,.206-.2.2.2,0,0,1,.175.23.214.214,0,0,1-.175.167.206.206,0,0,1-.206-.2Zm0,1.167a.2.2,0,0,1,.2-.191h0a.191.191,0,0,1,.2.183h0a.183.183,0,0,1-.191.2h0a.206.206,0,0,1-.206-.167Z" fill="#263238"/>
          <path id="Path_8955" data-name="Path 8955" d="M78.794,91.593a12.632,12.632,0,0,1-2.628.135,12.7,12.7,0,0,1-2.636-.135,12.743,12.743,0,0,1,2.636-.143,12.64,12.64,0,0,1,2.628.143Z" fill="#263238"/>
          <path id="Path_8956" data-name="Path 8956" d="M98.922,91.625c0,.079-3.787.143-8.464.143s-8.464-.064-8.464-.143,3.787-.135,8.464-.135S98.922,91.554,98.922,91.625Z" fill="#263238"/>
          <path id="Path_8957" data-name="Path 8957" d="M76.325,140.026a2.58,2.58,0,0,0,1.175-.333,2.3,2.3,0,0,0,.977-1.064,4.851,4.851,0,0,0,.183-1.953c0-3.009,0-7.352-.048-12.7V111.546a2.16,2.16,0,0,0-.389-1.112,2.327,2.327,0,0,0-.945-.794,2.811,2.811,0,0,0-1.254-.191H49.385a2.247,2.247,0,0,0-2.175,1.707,7.678,7.678,0,0,0-.071,1.477V137.6a2.207,2.207,0,0,0,2.16,2.318h9.083l13.172.048h0l-13.172.048-9.131.1a2.445,2.445,0,0,1-2.4-2.541V111.856a2.85,2.85,0,0,1,.079-.794,2.517,2.517,0,0,1,2.453-1.85H76.023a3.017,3.017,0,0,1,1.35.214,2.382,2.382,0,0,1,1.485,2.072v12.434c0,5.359,0,9.7-.048,12.7V137.7a2.168,2.168,0,0,1-.206.921,2.382,2.382,0,0,1-1.906,1.342A1.454,1.454,0,0,1,76.325,140.026Z" fill="#e0e0e0"/>
          <path id="Path_8958" data-name="Path 8958" d="M77.85,110.109c.079.071-6.654,6.7-15.022,14.776S47.575,139.478,47.512,139.4s6.646-6.7,15.03-14.784S77.81,110.03,77.85,110.109Z" fill="#ccc"/>
          <path id="Path_8959" data-name="Path 8959" d="M77.365,139.081c-.079.071-6.781-6.352-14.974-14.347S47.639,110.18,47.7,110.109s6.781,6.352,14.974,14.347S77.445,139,77.365,139.081Z" fill="#ccc"/>
          <path id="Path_8960" data-name="Path 8960" d="M76.325,186.7a2.334,2.334,0,0,0,.318,0,2.509,2.509,0,0,0,.858-.3,2.3,2.3,0,0,0,.977-1.064,4.867,4.867,0,0,0,.183-1.953c0-3.009,0-7.352-.048-12.7V158.216a2.136,2.136,0,0,0-.389-1.112,2.2,2.2,0,0,0-.945-.794,2.81,2.81,0,0,0-1.254-.191H49.385a2.239,2.239,0,0,0-2.176,1.636,7.678,7.678,0,0,0-.071,1.477V184.2a2.207,2.207,0,0,0,2.16,2.382h9.083l13.172.04H58.381l-9.131.1a2.477,2.477,0,0,1-2.112-1.3,2.422,2.422,0,0,1-.286-1.247V158.454a2.938,2.938,0,0,1,.079-.794,2.517,2.517,0,0,1,2.453-1.842H76.023a3.017,3.017,0,0,1,1.35.214,2.382,2.382,0,0,1,1.485,2.072v12.426c0,5.367,0,9.71-.048,12.7V184.3a2.191,2.191,0,0,1-.206,1.016,2.382,2.382,0,0,1-1.906,1.342,1.453,1.453,0,0,1-.373.04Z" fill="#e0e0e0"/>
          <path id="Path_8961" data-name="Path 8961" d="M77.85,156.771c.079.079-6.654,6.709-15.022,14.784s-15.252,14.593-15.316,14.514,6.646-6.7,15.03-14.792S77.81,156.7,77.85,156.771Z" fill="#ccc"/>
          <path id="Path_8962" data-name="Path 8962" d="M77.365,185.791c-.079.071-6.781-6.352-14.974-14.355S47.639,156.85,47.7,156.771s6.781,6.352,14.974,14.355S77.445,185.664,77.365,185.791Z" fill="#ccc"/>
          <path id="Path_8963" data-name="Path 8963" d="M76.063,228.007a2.445,2.445,0,0,0,2.152-1.4,4.851,4.851,0,0,0,.183-1.953c0-3.009,0-7.352-.048-12.7V199.527a2.16,2.16,0,0,0-.389-1.112,2.326,2.326,0,0,0-.945-.715,2.81,2.81,0,0,0-1.254-.191H49.123a2.247,2.247,0,0,0-2.176,1.636,7.678,7.678,0,0,0-.071,1.477v24.971a2.207,2.207,0,0,0,2.16,2.279h9.083l13.172.048h0l-13.172.048-9.131.1a2.383,2.383,0,0,1-2.43-2.493V199.837a2.85,2.85,0,0,1,.079-.794,2.517,2.517,0,0,1,2.453-1.85h26.67a3.017,3.017,0,0,1,1.35.214A2.382,2.382,0,0,1,78.6,199.5v12.434c0,5.359,0,9.7-.048,12.7V225.7a2.168,2.168,0,0,1-.206.921,2.382,2.382,0,0,1-1.906,1.342,1.453,1.453,0,0,1-.381.048Z" fill="#e0e0e0"/>
          <path id="Path_8964" data-name="Path 8964" d="M77.588,198.09c.079.071-6.654,6.7-15.022,14.776S47.313,227.459,47.25,227.38s6.646-6.7,15.03-14.784S77.508,198.01,77.588,198.09Z" fill="#ccc"/>
          <path id="Path_8965" data-name="Path 8965" d="M77.1,227.078c-.079.071-6.781-6.352-14.974-14.347S47.361,198.177,47.44,198.106s6.781,6.352,14.974,14.347S77.183,226.983,77.1,227.078Z" fill="#ccc"/>
          <text id="Place" transform="translate(53.911 77.889)" fill="#f55a66" font-size="5" font-family="Helvetica" letter-spacing="0.06em"><tspan x="0" y="0">Pla</tspan><tspan y="0" letter-spacing="0.05em">c</tspan><tspan y="0">e</tspan></text>
          <text id="Date" transform="translate(53.911 93.936)" fill="#f55a66" font-size="5" font-family="Helvetica" letter-spacing="0.06em"><tspan x="0" y="0">Da</tspan><tspan y="0" letter-spacing="0.05em">t</tspan><tspan y="0">e</tspan></text>
          <text id="Show_1" data-name="Show 1" transform="translate(88.934 115.683)" fill="#f55a66" font-size="5" font-family="Helvetica" letter-spacing="0.04em"><tspan x="0" y="0">Sh</tspan><tspan y="0" letter-spacing="0.03em">o</tspan><tspan y="0">w 1</tspan></text>
          <text id="Show_2" data-name="Show 2" transform="translate(88.934 159.582)" fill="#f55a66" font-size="5" font-family="Helvetica" letter-spacing="0.04em"><tspan x="0" y="0">Sh</tspan><tspan y="0" letter-spacing="0.03em">o</tspan><tspan y="0">w 2</tspan></text>
          <text id="Show_3" data-name="Show 3" transform="translate(88.934 203.251)" fill="#f55a66" font-size="5" font-family="Helvetica" letter-spacing="0.04em"><tspan x="0" y="0">Sh</tspan><tspan y="0" letter-spacing="0.03em">o</tspan><tspan y="0">w 3</tspan></text>
        </g>
        <g id="freepik--Screens--inject-159">
          <path id="Path_8966" data-name="Path 8966" d="M196.208.683H180.924a3.8,3.8,0,0,0-3.716,3.883V7.336a3.811,3.811,0,0,1-3.716,3.883H143.71A3.8,3.8,0,0,1,140,7.336h0V4.526A3.8,3.8,0,0,0,136.278.643h-18.77A12.021,12.021,0,0,0,105.48,12.656h0V205.64a12.037,12.037,0,0,0,12.029,11.989l78.683.048a12.029,12.029,0,0,0,12.037-12.037h0l.04-192.937A12.029,12.029,0,0,0,196.256.683Z" fill="#fff"/>
          <path id="Path_8967" data-name="Path 8967" d="M196.637.143h.413a7.828,7.828,0,0,1,1.215.1,11.322,11.322,0,0,1,4.518,1.588,11.371,11.371,0,0,1,2.739,2.223,12.093,12.093,0,0,1,2.295,3.589,12.537,12.537,0,0,1,.9,4.883V18.2c0,16.022,0,39.215.04,67.861s0,62.772,0,100.661v18.023a12.8,12.8,0,0,1-.46,3.676,12.094,12.094,0,0,1-1.532,3.39,13.26,13.26,0,0,1-2.509,2.779,12.164,12.164,0,0,1-6.947,2.692c-2.517.079-5.026,0-7.559,0H118.779a12.7,12.7,0,0,1-7.837-2.16,12.378,12.378,0,0,1-4.764-6.59,13.252,13.252,0,0,1-.5-4.065V12.323c0-.484.04-.977.071-1.461A7.272,7.272,0,0,1,106,9.432,12.156,12.156,0,0,1,118.3,0h18a3.851,3.851,0,0,1,2.382.659A3.97,3.97,0,0,1,140.153,2.6a6.352,6.352,0,0,1,.246,2.382V6.153a7.939,7.939,0,0,0,0,1.151,3.716,3.716,0,0,0,.9,2.009,3.549,3.549,0,0,0,1.834,1.143,4.184,4.184,0,0,0,1.088.111h29.957a3.367,3.367,0,0,0,1.469-.516,3.811,3.811,0,0,0,1.691-2.382,7.5,7.5,0,0,0,.1-1.461V4.764a7.573,7.573,0,0,1,.064-1.405,4.113,4.113,0,0,1,.524-1.3A3.787,3.787,0,0,1,180.011.326a6.2,6.2,0,0,1,2.382-.254h0a5.907,5.907,0,0,0-2.382.254,3.7,3.7,0,0,0-1.858,1.651,3.748,3.748,0,0,0-.437,1.254,7.322,7.322,0,0,0-.056,1.382V6.05a6.646,6.646,0,0,1-.1,1.485,3.97,3.97,0,0,1-1.739,2.517,3.7,3.7,0,0,1-1.532.54,16.372,16.372,0,0,1-1.651,0H144.377a4.557,4.557,0,0,1-1.135-.111,3.748,3.748,0,0,1-1.913-1.207,4.033,4.033,0,0,1-.977-2.128,7.254,7.254,0,0,1,0-1.175v-1a6.264,6.264,0,0,0-.238-2.3A3.771,3.771,0,0,0,138.724.842a3.589,3.589,0,0,0-2.247-.619H118.438A11.91,11.91,0,0,0,106.346,9.48c-.119.461-.159.937-.238,1.405a8.86,8.86,0,0,0,0,1.461V204.489a12.648,12.648,0,0,0,.492,3.97,11.91,11.91,0,0,0,4.629,6.4,12.322,12.322,0,0,0,7.646,2.1h78.5a11.83,11.83,0,0,0,6.757-2.62,12.7,12.7,0,0,0,2.382-2.707,11.99,11.99,0,0,0,1.509-3.3,12.433,12.433,0,0,0,.453-3.589V186.728c0-37.889.04-72.006.056-100.661s.048-51.839.064-67.861V12.529a12.441,12.441,0,0,0-.873-4.867,12.283,12.283,0,0,0-2.263-3.573,11.95,11.95,0,0,0-7.209-3.8,10.464,10.464,0,0,0-1.215-.111Z" fill="#263238"/>
          <path id="Path_8968" data-name="Path 8968" d="M198.971,19.627c0,.056-1.993.111-4.438.127s-4.446,0-4.446-.056,1.985-.111,4.438-.127S198.971,19.572,198.971,19.627Z" fill="#263238"/>
          <path id="Path_8969" data-name="Path 8969" d="M198.971,21.874c0,.056-1.985.111-4.438.135s-4.438,0-4.438-.064,1.985-.1,4.438-.127S198.971,21.874,198.971,21.874Z" fill="#263238"/>
          <path id="Path_8970" data-name="Path 8970" d="M198.971,24.169c0,.056-1.985.111-4.438.135s-4.438,0-4.438-.056,1.985-.111,4.438-.135S198.971,24.121,198.971,24.169Z" fill="#263238"/>
          <path id="Path_8971" data-name="Path 8971" d="M133.762,168.657h46.956a8.114,8.114,0,0,1,8.114,8.115h0a8.114,8.114,0,0,1-8.114,8.107H133.762a8.107,8.107,0,0,1-8.114-8.107h0a8.107,8.107,0,0,1,8.114-8.114Z" fill="#f55a66"/>
          <path id="Path_8972" data-name="Path 8972" d="M181.5,206.752h-47a8.21,8.21,0,1,1,0-16.419h47a8.21,8.21,0,1,1,0,16.419Zm-46.956-16.2a8.011,8.011,0,0,0,0,16.023H181.5a8.011,8.011,0,0,0,0-16.022Z" fill="#f55a66"/>
          <path id="Path_8973" data-name="Path 8973" d="M149.6,199.027a1.929,1.929,0,0,1,1.906-1.953h.143a1.921,1.921,0,0,1,1.461.6l-.357.341a1.429,1.429,0,0,0-1.08-.453,1.469,1.469,0,1,0,0,2.938,1.453,1.453,0,0,0,1.056-.461l.357.349a2.056,2.056,0,0,1-2.9,0A2.025,2.025,0,0,1,149.6,199.027Z" fill="#f55a66"/>
          <path id="Path_8974" data-name="Path 8974" d="M156.049,199.193v1.747h-.5v-.381a1.064,1.064,0,0,1-.945.413c-.659,0-1.072-.349-1.072-.85s.3-.85,1.159-.85h.794v-.1c0-.445-.254-.7-.794-.7a1.461,1.461,0,0,0-.913.31l-.222-.4a1.914,1.914,0,0,1,1.2-.365C155.62,198.018,156.049,198.4,156.049,199.193Zm-.524.857v-.4h-.794c-.516,0-.667.206-.667.453s.238.468.643.468a.857.857,0,0,0,.794-.516Z" fill="#f55a66"/>
          <path id="Path_8975" data-name="Path 8975" d="M159.772,199.289v1.667h-.5v-1.588c0-.564-.286-.842-.794-.842a.857.857,0,0,0-.921.794,1.174,1.174,0,0,0,0,.167v1.493h-.524v-2.9h.5v.413a1.262,1.262,0,0,1,1.048-.461,1.112,1.112,0,0,1,1.183,1.048.707.707,0,0,1,.008.206Z" fill="#f55a66"/>
          <path id="Path_8976" data-name="Path 8976" d="M160.495,199.487a1.445,1.445,0,0,1,1.413-1.469h.119a1.278,1.278,0,0,1,1.175.611l-.4.262a.921.921,0,0,0-.794-.421,1.024,1.024,0,0,0,0,2.041.9.9,0,0,0,.794-.413l.4.246a1.294,1.294,0,0,1-1.175.627,1.453,1.453,0,0,1-1.532-1.374Z" fill="#f55a66"/>
          <path id="Path_8977" data-name="Path 8977" d="M166.418,199.662h-2.382a.977.977,0,0,0,1.1.858h0a1.08,1.08,0,0,0,.794-.349l.294.341a1.588,1.588,0,0,1-2.723-.842,1.286,1.286,0,0,1,0-.175,1.413,1.413,0,0,1,1.358-1.469h.1a1.389,1.389,0,0,1,1.429,1.35v.135a1.026,1.026,0,0,1,.04.151Zm-2.382-.373h1.858a.939.939,0,0,0-1.858,0Z" fill="#f55a66"/>
          <path id="Path_8978" data-name="Path 8978" d="M167.212,196.907h.524v4.057h-.524Z" fill="#f55a66"/>
          <path id="Path_8979" data-name="Path 8979" d="M207.88,52.4c0,.111-22.668.206-50.632.206s-50.648-.1-50.648-.206,22.668-.206,50.648-.206S207.88,52.3,207.88,52.4Z" fill="#e0e0e0"/>
          <path id="Path_8980" data-name="Path 8980" d="M187.18,154.191c0,.119-13.394.206-29.917.206s-29.917-.087-29.917-.206,13.394-.206,29.917-.206S187.18,154.079,187.18,154.191Z" fill="#263238"/>
          <path id="Path_8981" data-name="Path 8981" d="M187.18,160.026c0,.119-13.394.206-29.917.206s-29.917-.087-29.917-.206,13.394-.206,29.917-.206S187.18,159.891,187.18,160.026Z" fill="#263238"/>
          <path id="Path_8982" data-name="Path 8982" d="M114.238,26.257h-.064l-2.025-1.644a.111.111,0,0,1,0-.071.071.071,0,0,1,0-.079l2.025-1.81a.079.079,0,0,1,.119,0h0a.1.1,0,0,1,0,.143l-1.937,1.739,1.937,1.588a.1.1,0,0,1,0,.135h0a.143.143,0,0,1-.056,0Z" fill="#263238"/>
          <path id="Path_8983" data-name="Path 8983" d="M153.357,177.605c0,.73-.564,1.151-1.644,1.151h-2.048v-4.3h1.929c.977,0,1.54.429,1.54,1.12a1.064,1.064,0,0,1-.58.953A1.056,1.056,0,0,1,153.357,177.605Zm-3.081-2.636v1.374h1.262c.627,0,.985-.23.985-.691s-.357-.683-.985-.683Zm2.453,2.58c0-.492-.357-.715-1.048-.715h-1.413v1.453h1.382C152.372,178.288,152.73,178.05,152.73,177.55Z" fill="#fff"/>
          <path id="Path_8984" data-name="Path 8984" d="M153.913,177.129a1.7,1.7,0,1,1,1.731,1.667h0a1.588,1.588,0,0,1-1.7-1.524Zm2.779,0a1.088,1.088,0,1,0-.316.774,1.088,1.088,0,0,0,.316-.774Z" fill="#fff"/>
          <path id="Path_8985" data-name="Path 8985" d="M157.811,177.129a1.691,1.691,0,1,1,1.707,1.667h0a1.588,1.588,0,0,1-1.691-1.532Zm2.771,0a1.1,1.1,0,1,0-.517,1.026A1.1,1.1,0,0,0,160.582,177.129Z" fill="#fff"/>
          <path id="Path_8986" data-name="Path 8986" d="M163.258,177.24l-.675.619v.881h-.611V174.2h.588v2.922l1.771-1.588h.738l-1.358,1.342,1.5,1.9h-.73Z" fill="#fff"/>
          <rect id="Rectangle_3966" data-name="Rectangle 3966" width="4.359" height="4.359" transform="translate(123.972 94.277)" fill="#bcbcbc"/>
          <rect id="Rectangle_3967" data-name="Rectangle 3967" width="4.359" height="4.359" transform="translate(134.706 94.277)" fill="#bcbcbc"/>
          <rect id="Rectangle_3968" data-name="Rectangle 3968" width="4.359" height="4.359" transform="translate(145.632 94.079)" fill="#f55a66"/>
          <rect id="Rectangle_3969" data-name="Rectangle 3969" width="4.359" height="4.359" transform="translate(156.16 94.277)" fill="#bcbcbc"/>
          <rect id="Rectangle_3970" data-name="Rectangle 3970" width="4.359" height="4.359" transform="translate(166.894 94.277)" fill="#bcbcbc"/>
          <rect id="Rectangle_3971" data-name="Rectangle 3971" width="4.359" height="4.359" transform="translate(177.629 94.277)" fill="#bcbcbc"/>
          <rect id="Rectangle_3972" data-name="Rectangle 3972" width="4.359" height="4.359" transform="translate(188.356 94.277)" fill="#bcbcbc"/>
          <rect id="Rectangle_3973" data-name="Rectangle 3973" width="4.359" height="4.359" transform="translate(123.972 103.543)" fill="#bcbcbc"/>
          <rect id="Rectangle_3974" data-name="Rectangle 3974" width="4.359" height="4.359" transform="translate(134.706 103.543)" fill="#bcbcbc"/>
          <rect id="Rectangle_3975" data-name="Rectangle 3975" width="4.359" height="4.359" transform="translate(145.441 103.543)" fill="#bcbcbc"/>
          <rect id="Rectangle_3976" data-name="Rectangle 3976" width="4.359" height="4.359" transform="translate(156.16 103.543)" fill="#bcbcbc"/>
          <rect id="Rectangle_3977" data-name="Rectangle 3977" width="4.359" height="4.359" transform="translate(166.894 103.543)" fill="#bcbcbc"/>
          <rect id="Rectangle_3978" data-name="Rectangle 3978" width="4.359" height="4.359" transform="translate(177.819 103.344)" fill="#f55a66"/>
          <rect id="Rectangle_3979" data-name="Rectangle 3979" width="4.359" height="4.359" transform="translate(188.356 103.543)" fill="#bcbcbc"/>
          <rect id="Rectangle_3980" data-name="Rectangle 3980" width="4.359" height="4.359" transform="translate(123.972 112.808)" fill="#bcbcbc"/>
          <rect id="Rectangle_3981" data-name="Rectangle 3981" width="4.359" height="4.359" transform="translate(134.905 112.61)" fill="#f55a66"/>
          <rect id="Rectangle_3982" data-name="Rectangle 3982" width="4.359" height="4.359" transform="translate(145.441 112.808)" fill="#bcbcbc"/>
          <rect id="Rectangle_3983" data-name="Rectangle 3983" width="4.359" height="4.359" transform="translate(156.16 112.808)" fill="#bcbcbc"/>
          <rect id="Rectangle_3984" data-name="Rectangle 3984" width="4.359" height="4.359" transform="translate(166.894 112.808)" fill="#bcbcbc"/>
          <rect id="Rectangle_3985" data-name="Rectangle 3985" width="4.359" height="4.359" transform="translate(177.629 112.808)" fill="#bcbcbc"/>
          <rect id="Rectangle_3986" data-name="Rectangle 3986" width="4.359" height="4.359" transform="translate(188.356 112.808)" fill="#bcbcbc"/>
          <rect id="Rectangle_3987" data-name="Rectangle 3987" width="4.359" height="4.359" transform="translate(123.972 122.082)" fill="#bcbcbc"/>
          <rect id="Rectangle_3988" data-name="Rectangle 3988" width="4.359" height="4.359" transform="translate(134.706 122.082)" fill="#bcbcbc"/>
          <rect id="Rectangle_3989" data-name="Rectangle 3989" width="4.359" height="4.359" transform="translate(145.441 122.082)" fill="#bcbcbc"/>
          <rect id="Rectangle_3990" data-name="Rectangle 3990" width="4.359" height="4.359" transform="translate(156.366 121.884)" fill="#f55a66"/>
          <rect id="Rectangle_3991" data-name="Rectangle 3991" width="4.359" height="4.359" transform="translate(166.894 122.082)" fill="#bcbcbc"/>
          <rect id="Rectangle_3992" data-name="Rectangle 3992" width="4.359" height="4.359" transform="translate(177.629 122.082)" fill="#bcbcbc"/>
          <rect id="Rectangle_3993" data-name="Rectangle 3993" width="4.359" height="4.359" transform="translate(188.356 122.082)" fill="#bcbcbc"/>
          <rect id="Rectangle_3994" data-name="Rectangle 3994" width="4.359" height="4.359" transform="translate(123.972 131.348)" fill="#bcbcbc"/>
          <rect id="Rectangle_3995" data-name="Rectangle 3995" width="4.359" height="4.359" transform="translate(134.706 131.348)" fill="#bcbcbc"/>
          <rect id="Rectangle_3996" data-name="Rectangle 3996" width="4.359" height="4.359" transform="translate(145.441 131.348)" fill="#bcbcbc"/>
          <rect id="Rectangle_3997" data-name="Rectangle 3997" width="4.359" height="4.359" transform="translate(156.16 131.348)" fill="#bcbcbc"/>
          <rect id="Rectangle_3998" data-name="Rectangle 3998" width="4.359" height="4.359" transform="translate(166.894 131.348)" fill="#bcbcbc"/>
          <rect id="Rectangle_3999" data-name="Rectangle 3999" width="4.359" height="4.359" transform="translate(177.819 131.149)" fill="#f55a66"/>
          <rect id="Rectangle_4000" data-name="Rectangle 4000" width="4.359" height="4.359" transform="translate(188.356 131.348)" fill="#bcbcbc"/>
          <path id="Path_8987" data-name="Path 8987" d="M162.94,39.31a3.97,3.97,0,0,0-2.033-1.4.236.236,0,1,0-.159.445,3.613,3.613,0,0,1,1.747,1.127c-.445,1.763-1.191,4.653-3.97,4.9-2.453-1.421-1.9-4.359-1.588-6.137a3.66,3.66,0,0,1,2.048-.286.238.238,0,0,0,.262-.206.246.246,0,0,0-.214-.254,5.884,5.884,0,0,0-1.12,0,15.231,15.231,0,0,0-.794-2.152v-.064a.238.238,0,0,0-.135-.127,5.907,5.907,0,0,0-5.923,2.644.262.262,0,0,0,0,.191v.056a11.282,11.282,0,0,0,1.81,2.914,4.089,4.089,0,0,0,3.065,1.413,3.057,3.057,0,0,0,.381,0,3.97,3.97,0,0,0,1.961,2.469.183.183,0,0,0,.111,0h0a4.057,4.057,0,0,0,3.311-2.072,11.307,11.307,0,0,0,1.2-3.224v-.064a.246.246,0,0,0,.04-.175Zm-11.4-1.429a5.661,5.661,0,0,1,5.2-2.326,14.636,14.636,0,0,1,.715,2.009,2.8,2.8,0,0,0-.85.333.206.206,0,0,0-.1.151v.064c-.079.4-.167.85-.23,1.342a1.667,1.667,0,0,0-.794.167,1.85,1.85,0,0,0-1.008,1.1.23.23,0,0,0,.143.294h.079a.246.246,0,0,0,.222-.159,1.374,1.374,0,0,1,.754-.794,1.357,1.357,0,0,1,.572-.127,7.885,7.885,0,0,0,0,1.588.821.821,0,0,0,.056.365C153.571,42.081,152.309,39.477,151.539,37.881Z" fill="#f55a66" fill-rule="evenodd"/>
          <path id="Path_8988" data-name="Path 8988" d="M157.6,42.081a1.89,1.89,0,0,0,1.2.85,1.762,1.762,0,0,0,.4.048,1.874,1.874,0,0,0,1.064-.333.231.231,0,1,0-.262-.381,1.421,1.421,0,0,1-1.1.214,1.405,1.405,0,0,1-.905-.667.222.222,0,0,0-.318-.079.23.23,0,0,0-.079.349Z" fill="#f55a66" fill-rule="evenodd"/>
          <path id="Path_8989" data-name="Path 8989" d="M157.843,39.8l.611.135h.056a.238.238,0,0,0,.222-.183.222.222,0,0,0-.175-.278l-.611-.135a.222.222,0,0,0-.278.175.23.23,0,0,0,.175.286Z" fill="#f55a66" fill-rule="evenodd"/>
          <path id="Path_8990" data-name="Path 8990" d="M160.384,40.366l.611.143h.048a.238.238,0,0,0,.23-.183.246.246,0,0,0-.183-.278l-.611-.135a.246.246,0,0,0-.278.175A.238.238,0,0,0,160.384,40.366Z" fill="#f55a66" fill-rule="evenodd"/>
          <path id="Path_8991" data-name="Path 8991" d="M155.493,37.539h.1l.572-.254a.231.231,0,1,0-.191-.421l-.572.254a.23.23,0,0,0-.119.31.246.246,0,0,0,.214.111Z" fill="#f55a66" fill-rule="evenodd"/>
          <path id="Path_8992" data-name="Path 8992" d="M153.579,37.9l-.572.254a.238.238,0,0,0-.119.31.23.23,0,0,0,.214.135h.1l.572-.254a.238.238,0,1,0-.191-.429Z" fill="#f55a66" fill-rule="evenodd"/>
          <path id="Path_8993" data-name="Path 8993" d="M159.931,38.111a.23.23,0,1,0-.23-.23A.23.23,0,0,0,159.931,38.111Z" fill="#f55a66" fill-rule="evenodd"/>
          <path id="Path_8994" data-name="Path 8994" d="M123.337,85.377s34.538-36.126,70.664,0V66.321H123.337Z" fill="#efefef"/>
        </g>
        <g id="freepik--Sofa--inject-159">
          <rect id="Rectangle_4001" data-name="Rectangle 4001" width="9.234" height="36.007" transform="translate(327.183 305.729)" fill="#263238"/>
          <rect id="Rectangle_4002" data-name="Rectangle 4002" width="9.234" height="36.007" transform="translate(188.554 305.729)" fill="#263238"/>
          <path id="Path_8995" data-name="Path 8995" d="M168.855,219.567C170.928,215.978,191.3,205.2,191.3,205.2s3.748-17.563,13.7-20.866c4.859-1.588,115.246,1.588,115.246,1.588,4.486,2.707,7.559,19.278,7.559,19.278,7.94,2,26.59,12.839,27.623,17.333s1.247,86.726-.127,91.212c-6.447,2.692-12.7,3.049-18.849.619l-146.433-.643s-18.516,6.971-21.167-.381C167.609,310,166.736,223.148,168.855,219.567Z" fill="#f55a66"/>
          <path id="Path_8996" data-name="Path 8996" d="M189.983,281.72c0-.119,32.355-.206,72.252-.206s72.252.087,72.252.206-32.347.206-72.252.206S189.983,281.862,189.983,281.72Z" fill="#263238"/>
          <path id="Path_8997" data-name="Path 8997" d="M344.214,312.978v-2.136c0-1.445-.056-3.557-.1-6.3-.071-5.518-.175-13.569-.3-23.724s-.254-22.446-.421-36.42v-5.32c0-1.794.1-3.621,0-5.455a19.056,19.056,0,0,0-1.064-5.447,20.825,20.825,0,0,0-2.7-5.018,31.212,31.212,0,0,0-8.623-8.051,62.527,62.527,0,0,0-11.036-5.629H319.9V209.4l-3.3-7.94-1.683-4.041c-.286-.675-.564-1.35-.85-2.033a7.94,7.94,0,0,0-1.032-1.906,7.773,7.773,0,0,0-5.51-3.176c-.73-.071-1.5-.087-2.247-.135l-9.147-.476c-12.315-.619-25.066-1.207-38.111-1.707q-9.909-.381-19.587-.619c-6.447-.143-12.791-.262-19.016-.151-1.588,0-3.1.071-4.645.159-.794,0-1.532.111-2.287.183a9.606,9.606,0,0,0-2.207.429,9.1,9.1,0,0,0-3.644,2.5,19.269,19.269,0,0,0-2.628,3.6,43.3,43.3,0,0,0-3.478,8.107,68.715,68.715,0,0,0-2.128,8.369v.119h-.119a23.819,23.819,0,0,0-5.693,2.382,41.288,41.288,0,0,0-5.074,3.366,22.78,22.78,0,0,0-4.24,4.145,8.591,8.591,0,0,0-1.318,2.557,15.467,15.467,0,0,0-.524,2.819c-.294,3.835.341,7.59.484,11.267.064,1.858,0,3.652-.04,5.447s0,3.541-.056,5.28c-.111,13.871,0,26.066.064,36.158s0,18.079,0,23.549c-.04,2.723-.071,4.819-.1,6.249v-6.257c0-5.463,0-13.45-.087-23.541s-.238-22.279-.151-36.158q0-2.62.048-5.288c0-1.779.1-3.6,0-5.423-.143-3.652-.794-7.408-.5-11.306a15.61,15.61,0,0,1,.532-2.906,9.179,9.179,0,0,1,1.366-2.66,23.771,23.771,0,0,1,4.3-4.216,40.672,40.672,0,0,1,5.121-3.406,24.448,24.448,0,0,1,5.788-2.453l-.143.151a69.575,69.575,0,0,1,2.128-8.424,43.621,43.621,0,0,1,3.509-8.186,20.349,20.349,0,0,1,2.676-3.676,9.528,9.528,0,0,1,3.811-2.6,10.32,10.32,0,0,1,2.287-.453c.794-.079,1.54-.151,2.31-.183,1.588-.1,3.1-.143,4.661-.167,6.241-.111,12.585,0,19.055.151s12.982.365,19.6.611c13.069.5,25.82,1.1,38.111,1.715l9.147.484c.794.048,1.5.064,2.271.135a7.669,7.669,0,0,1,2.231.556,8.13,8.13,0,0,1,3.565,2.779,8.87,8.87,0,0,1,1.072,1.985c.286.683.564,1.358.85,2.033.556,1.358,1.12,2.7,1.675,4.041l3.3,7.94-.1-.1a64.009,64.009,0,0,1,11.116,5.677,31.886,31.886,0,0,1,8.734,8.154,21.5,21.5,0,0,1,2.731,5.105,19.762,19.762,0,0,1,1.08,5.558c.1,1.858,0,3.692,0,5.486s-.064,3.565,0,5.312c.127,13.966.246,26.249.333,36.412s.151,18.214.191,23.724c0,2.755,0,4.867.04,6.3V312.4A1.644,1.644,0,0,0,344.214,312.978Z" fill="#263238"/>
          <g id="Group_6217" data-name="Group 6217" opacity="0.4">
            <path id="Path_8998" data-name="Path 8998" d="M343.618,316.067c1.239-25.773.191-49.767,0-75.563-.079-8.734,1.048-15.276-8.924-23.406-5.478-4.462-14.562-8.376-14.562-8.376-2.588-3.644-2.962-10.06-5.4-13.807-3.636-5.605-11.481-6.145-18.166-6.1l-70.394.532c-5.6.04-11.806.326-15.784,4.264-3.692,3.66-4.287,9.345-4.5,14.546q-.421,9.861-.087,19.73c.111,3.239.4,6.781,2.636,9.131a11.473,11.473,0,0,0,7.3,3.112c19.849,1.834,77.6,1.493,102.423,1.493l18.063,17,.159,55.769Z"/>
          </g>
          <path id="Path_8999" data-name="Path 8999" d="M196.645,258.837c0-.119,30.64-.206,68.417-.206s68.417.087,68.417.206-30.624.206-68.417.206S196.645,258.964,196.645,258.837Z" fill="#263238"/>
          <path id="Path_9000" data-name="Path 9000" d="M189.983,313.725v-4.073c0-2.66,0-6.534-.04-11.489V256.646l.048-.048,14.792-15.141.056-.056H318.385l.048.048c4.168,3.676,8.13,7.241,11.838,10.727,1.842,1.755,3.652,3.454,5.272,5.256.2.238.4.46.572.715a2.666,2.666,0,0,1,.254.4.659.659,0,0,1,.079.278v49.5a2.562,2.562,0,0,1,0,.349v-1.389c0-.929,0-2.287-.04-4.049,0-3.557-.064-8.734-.111-15.3s-.079-14.538-.127-23.629v-5.463a.507.507,0,0,0-.048-.143,2.042,2.042,0,0,0-.23-.349c-.167-.238-.365-.461-.556-.691-1.588-1.778-3.414-3.478-5.256-5.216-3.708-3.478-7.686-7.035-11.846-10.7l.119.048H204.918l.135-.064c-5.264,5.367-10.258,10.465-14.824,15.086l.048-.111c-.04,17.269-.071,31.513-.1,41.446,0,4.954-.04,8.829-.056,11.489v3.009A3,3,0,0,1,189.983,313.725Z" fill="#263238"/>
          <path id="Path_9001" data-name="Path 9001" d="M320.2,210.3c.111,0-.23,7.019-.794,15.673s-1.064,15.649-1.175,15.649.23-7.027.794-15.681S320.092,210.293,320.2,210.3Z" fill="#263238"/>
          <path id="Path_9002" data-name="Path 9002" d="M170.38,220.639a27.924,27.924,0,0,1,10.425,1.485c0,.111-2.326-.429-5.2-.834S170.372,220.766,170.38,220.639Z" fill="#263238"/>
          <path id="Path_9003" data-name="Path 9003" d="M193.167,205.926a3.232,3.232,0,0,1,2.072.349,3.12,3.12,0,0,1,1.683,1.262c-.627-.262-1.247-.556-1.85-.881a18.461,18.461,0,0,1-1.906-.73Z" fill="#263238"/>
          <path id="Path_9004" data-name="Path 9004" d="M344.642,225.228a18.73,18.73,0,0,1,8.591-3.97c0,.119-2.017.715-4.383,1.826S344.714,225.331,344.642,225.228Z" fill="#263238"/>
        </g>
        <g id="freepik--Character--inject-159">
          <path id="Path_9005" data-name="Path 9005" d="M183.568,220.6c1.667-3.017,4.6-5.089,7.424-7.066,4.812-3.351,9.893-6.812,15.729-7.471,6.114-.691,12.251,1.882,17.071,5.709,11.227,8.956,19.016,27,14.4,40.62-9.766,3.414-20.763,6.082-31.084,5.3-4.5-.333-9.155-1.151-12.831-3.779-4.549-3.247-6.868-8.734-8.972-13.879C182.8,233.787,180.3,226.49,183.568,220.6Z" fill="#f5f5f5"/>
          <path id="Path_9006" data-name="Path 9006" d="M205.926,254.756a1.589,1.589,0,0,1,.238-.278,9.07,9.07,0,0,1,.794-.738,23.6,23.6,0,0,1,3.1-2.382,36.38,36.38,0,0,1,11.854-4.843,71.807,71.807,0,0,1,12.743-1.532c1.636-.071,2.962-.111,3.883-.119h1.056a.984.984,0,0,1,.373,0,10.636,10.636,0,0,1-1.421.135l-3.875.246a82.669,82.669,0,0,0-12.7,1.651,38.214,38.214,0,0,0-11.8,4.684,29.38,29.38,0,0,0-3.176,2.247A10.87,10.87,0,0,1,205.926,254.756Z" fill="#e0e0e0"/>
          <path id="Path_9007" data-name="Path 9007" d="M200.035,256.272a5.86,5.86,0,0,1,2.715-3.748,17.463,17.463,0,0,1-1.405,1.85,17.146,17.146,0,0,1-1.31,1.9Z" fill="#e0e0e0"/>
          <path id="Path_9008" data-name="Path 9008" d="M231.627,232.922a7.471,7.471,0,0,1,6.217-1.024c0,.127-1.437-.064-3.176.23S231.683,233.041,231.627,232.922Z" fill="#f55a66"/>
          <path id="Path_9009" data-name="Path 9009" d="M194.826,244.958a2.178,2.178,0,0,1,.238-.286l.738-.794c.326-.333.73-.723,1.223-1.159s1.024-.953,1.667-1.469a53.2,53.2,0,0,1,4.645-3.478,55.423,55.423,0,0,1,18.261-7.86c.794-.2,1.54-.318,2.183-.437s1.207-.206,1.659-.262l1.056-.119a.984.984,0,0,1,.373,0,2.38,2.38,0,0,1-.357.1l-1.04.2c-.461.079-1.008.183-1.644.333s-1.374.27-2.16.492c-1.588.381-3.478.937-5.558,1.644a62.887,62.887,0,0,0-6.5,2.731,68.818,68.818,0,0,0-6.129,3.494c-1.8,1.2-3.39,2.382-4.661,3.39-.659.492-1.207.992-1.707,1.413s-.921.794-1.262,1.1l-.794.7a1.262,1.262,0,0,1-.23.27Z" fill="#e0e0e0"/>
          <path id="Path_9010" data-name="Path 9010" d="M187,243.894a5.145,5.145,0,0,1,1.85-2.477,5.042,5.042,0,0,1,2.874-1.127c.048.135-1.31.484-2.62,1.461A24.2,24.2,0,0,0,187,243.894Z" fill="#e0e0e0"/>
          <path id="Path_9011" data-name="Path 9011" d="M189.674,235.47a7.537,7.537,0,0,1,.691-1.008,12.419,12.419,0,0,1,.9-1.127c.373-.429.794-.929,1.278-1.429a33.255,33.255,0,0,1,3.676-3.343,35.11,35.11,0,0,1,10.7-5.733,33.824,33.824,0,0,1,4.827-1.215c.7-.143,1.334-.2,1.89-.27a12.543,12.543,0,0,1,1.437-.127,6.351,6.351,0,0,1,1.231,0,6.9,6.9,0,0,1-1.215.183,8.492,8.492,0,0,0-1.421.191c-.556.1-1.183.167-1.866.326a35.79,35.79,0,0,0-4.764,1.286,40.786,40.786,0,0,0-5.558,2.382,39.631,39.631,0,0,0-5.066,3.271,37.806,37.806,0,0,0-3.708,3.247c-.516.484-.921.969-1.31,1.374s-.691.794-.945,1.08A7.057,7.057,0,0,1,189.674,235.47Z" fill="#e0e0e0"/>
          <path id="Path_9012" data-name="Path 9012" d="M182.829,233.922a6.114,6.114,0,0,1,4.43-3.438c.04.119-1.167.548-2.382,1.509S182.933,233.993,182.829,233.922Z" fill="#e0e0e0"/>
          <path id="Path_9013" data-name="Path 9013" d="M221.861,223.9a5.073,5.073,0,0,1,1.493-.881,14.729,14.729,0,0,1,8.226-1.159,4.923,4.923,0,0,1,1.683.429,20.016,20.016,0,0,0-11.378,1.588Z" fill="#f55a66"/>
          <path id="Path_9014" data-name="Path 9014" d="M206.665,217.915a2.6,2.6,0,0,1,.611-.453c.4-.278,1.008-.643,1.779-1.064a31.307,31.307,0,0,1,6.352-2.541,30.727,30.727,0,0,1,6.725-1.1,18.049,18.049,0,0,1,2.072,0,2.382,2.382,0,0,1,.794.079c0,.064-1.08.071-2.8.222a36.475,36.475,0,0,0-12.966,3.613C207.625,217.423,206.7,217.979,206.665,217.915Z" fill="#e0e0e0"/>
          <path id="Path_9015" data-name="Path 9015" d="M184.926,224.148a8.836,8.836,0,0,1,1.644-1.532,21.254,21.254,0,0,1,9.893-4.272,7.591,7.591,0,0,1,2.239-.143,20.161,20.161,0,0,1-2.191.429,25.408,25.408,0,0,0-9.766,4.208,21.508,21.508,0,0,1-1.818,1.31Z" fill="#e0e0e0"/>
          <path id="Path_9016" data-name="Path 9016" d="M182.242,223.624c-.064-.1.4-.508,1.016-.921s1.183-.683,1.247-.588-.4.516-1.016.929S182.305,223.719,182.242,223.624Z" fill="#e0e0e0"/>
          <path id="Path_9017" data-name="Path 9017" d="M185.108,218.852a6.672,6.672,0,0,1,.992-.651c.651-.4,1.588-.961,2.795-1.628,2.382-1.334,5.733-3.081,9.528-4.843s7.281-3.176,9.837-4.129c1.278-.484,2.318-.85,3.049-1.088a5.177,5.177,0,0,1,1.135-.333,7.336,7.336,0,0,1-1.08.484l-3,1.207c-2.525,1.024-5.995,2.485-9.766,4.24s-7.146,3.454-9.528,4.764l-2.858,1.5a6.082,6.082,0,0,1-1.1.476Z" fill="#e0e0e0"/>
          <path id="Path_9018" data-name="Path 9018" d="M213.175,257.7a3.841,3.841,0,0,1,.985-.222l2.7-.476c2.287-.4,5.431-.977,8.893-1.707s6.566-1.485,8.813-2.041l2.66-.667a4.764,4.764,0,0,1,.993-.2,5.615,5.615,0,0,1-.945.349c-.619.206-1.516.476-2.636.794-2.231.635-5.336,1.437-8.805,2.168s-6.63,1.27-8.924,1.588c-1.151.159-2.08.278-2.723.341A7.087,7.087,0,0,1,213.175,257.7Z" fill="#263238"/>
          <path id="Path_9019" data-name="Path 9019" d="M184.2,219.289a1.326,1.326,0,0,1,.127.468l.278,1.358c.111.6.254,1.318.476,2.144a28.582,28.582,0,0,0,.794,2.8c.159.508.318,1.048.492,1.588s.4,1.127.611,1.723c.4,1.191.961,2.422,1.516,3.732a55.944,55.944,0,0,0,10.2,15.3c1,1.016,1.921,2,2.874,2.835.468.421.905.85,1.35,1.223l1.3,1.08c.794.7,1.588,1.247,2.295,1.763s1.294.937,1.794,1.262l1.151.794a2.321,2.321,0,0,1,.381.294,2.2,2.2,0,0,1-.429-.222l-1.191-.715c-.516-.31-1.143-.7-1.834-1.207s-1.524-1.032-2.382-1.731l-1.326-1.056c-.461-.373-.9-.794-1.374-1.223-.969-.794-1.906-1.81-2.914-2.819a53.943,53.943,0,0,1-10.322-15.4c-.548-1.326-1.1-2.565-1.485-3.779-.206-.6-.429-1.175-.6-1.739s-.326-1.112-.468-1.588c-.326-1.032-.508-1.993-.7-2.835s-.326-1.588-.413-2.16-.143-1.016-.2-1.374A.77.77,0,0,1,184.2,219.289Z" fill="#263238"/>
          <path id="Path_9020" data-name="Path 9020" d="M192.278,247.944a7.765,7.765,0,0,1,2.088-4.327,11.288,11.288,0,0,1-1.016,2.175,11.823,11.823,0,0,1-1.072,2.152Z" fill="#263238"/>
          <path id="Path_9021" data-name="Path 9021" d="M191.4,245.125c-.1-.064.262-.746.937-1.389s1.358-.977,1.421-.881-.5.564-1.135,1.183S191.5,245.189,191.4,245.125Z" fill="#263238"/>
          <path id="Path_9022" data-name="Path 9022" d="M191.087,224.545a17.635,17.635,0,0,0-2.549,2.382,11.3,11.3,0,0,0-1.588,3.112,2.017,2.017,0,0,1,.079-1.064,6.352,6.352,0,0,1,1.135-2.3,5.558,5.558,0,0,1,2.922-2.128Z" fill="#263238"/>
          <path id="Path_9023" data-name="Path 9023" d="M188.7,222.592a22.057,22.057,0,0,1-.977,2.382,20,20,0,0,1-.889,2.382,5.312,5.312,0,0,1,.5-2.549A5.137,5.137,0,0,1,188.7,222.592Z" fill="#263238"/>
          <path id="Path_9024" data-name="Path 9024" d="M209.857,225.847a4.414,4.414,0,0,1,1-.214,8.609,8.609,0,0,1,1.183-.151,15.3,15.3,0,0,1,1.588-.079,17.2,17.2,0,0,1,1.921.056,16.3,16.3,0,0,1,2.207.262,23.684,23.684,0,0,1,9.361,3.74c.635.453,1.247.873,1.771,1.334a15.878,15.878,0,0,1,1.437,1.294,13.622,13.622,0,0,1,1.088,1.159,7.71,7.71,0,0,1,.794.929,4.423,4.423,0,0,1,.572.85c-.064.048-.913-1.135-2.62-2.731-.429-.389-.9-.794-1.445-1.231s-1.135-.85-1.763-1.286a24.923,24.923,0,0,0-9.226-3.708c-.754-.119-1.477-.254-2.16-.294s-1.318-.1-1.906-.111C211.3,225.665,209.864,225.935,209.857,225.847Z" fill="#263238"/>
          <path id="Path_9025" data-name="Path 9025" d="M202.3,219.138a4.765,4.765,0,0,1,.985-.222,8.408,8.408,0,0,1,1.167-.159,13.416,13.416,0,0,1,1.588-.1,13.855,13.855,0,0,1,1.906.04,19.665,19.665,0,0,1,2.168.238,23.2,23.2,0,0,1,9.266,3.644c.627.445,1.239.85,1.755,1.3a15.35,15.35,0,0,1,1.413,1.27,12.242,12.242,0,0,1,1.1,1.127,7.492,7.492,0,0,1,.746.913,4.279,4.279,0,0,1,.572.794c-.071.056-.905-1.112-2.6-2.676-.421-.381-.889-.794-1.429-1.207s-1.127-.794-1.755-1.254a24.248,24.248,0,0,0-9.115-3.589c-.746-.111-1.453-.238-2.128-.27a14.738,14.738,0,0,0-1.874-.087C203.719,218.924,202.306,219.2,202.3,219.138Z" fill="#263238"/>
          <path id="Path_9026" data-name="Path 9026" d="M204.648,197.066s27.241-25.407,32.37-31.505c3.4-4.049,9.909-5.733,13.9-6.352h0l14.141-2.271,29.377,2.644a.468.468,0,0,1,.294,0h.238v.079c3.97,1.818,24.081,22.652,24.081,22.652l5.923-15.578,13.934,3.073-5.4,32.442c-3.462,6.042-8.734,8.511-14.442,4.629l-19.691-15.086c-.794,10.155-2.684,37.055-.977,42.5,1.913,6.1-55.317-5.105-55.317-5.105l4.637-41.454-21.946,16.753-.326.4c4.224,5.5,8.083,11.219,9.282,17.071-2.175,3.668-6.606,5.05-12.489,4.962l-18.563-20.794Z" fill="#455a64"/>
          <path id="Path_9027" data-name="Path 9027" d="M297.6,212.516a1.586,1.586,0,0,1,0-.389c0-.3.04-.675.064-1.112.071-1.032.167-2.382.286-4.089.278-3.509.651-8.242,1.064-13.5s.754-9.972,1.024-13.5c.111-1.675.2-3.057.27-4.089a6.689,6.689,0,0,1,.056-1.112,1.469,1.469,0,0,1,.056-.381,1.587,1.587,0,0,1,0,.389v1.112c0,.969-.056,2.382-.135,4.1-.167,3.462-.492,8.234-.913,13.5s-.842,10.02-1.175,13.5c-.175,1.675-.318,3.049-.421,4.073-.056.445-.1.794-.135,1.112a1.3,1.3,0,0,1-.04.389Z" fill="#263238"/>
          <path id="Path_9028" data-name="Path 9028" d="M250.175,184.2c-.071-.04.627-1.032,1.342-2.819a16.411,16.411,0,0,0-1.024-14.419c-.953-1.667-1.786-2.541-1.723-2.6a3.065,3.065,0,0,1,.6.6,12.078,12.078,0,0,1,1.374,1.858,15.737,15.737,0,0,1,1.04,14.681,13.5,13.5,0,0,1-1.1,2.025A2.993,2.993,0,0,1,250.175,184.2Z" fill="#263238"/>
          <path id="Path_9029" data-name="Path 9029" d="M211.667,197.1a1.652,1.652,0,0,1,.627-.2,7.44,7.44,0,0,1,1.779-.135,11.068,11.068,0,0,1,5.558,1.914,21.261,21.261,0,0,1,4.335,3.97,11.512,11.512,0,0,1,1.5,1.9,17.329,17.329,0,0,1-1.715-1.7,25.629,25.629,0,0,0-4.343-3.787,11.8,11.8,0,0,0-5.32-1.961,18.993,18.993,0,0,0-2.422,0Z" fill="#263238"/>
          <path id="Path_9030" data-name="Path 9030" d="M217.375,192.865a7.622,7.622,0,0,1,1.771,1.278,20.715,20.715,0,0,1,5.907,8.583,7.353,7.353,0,0,1,.556,2.1c-.294-.651-.564-1.318-.794-1.993a24.613,24.613,0,0,0-5.836-8.48,21.9,21.9,0,0,1-1.6-1.493Z" fill="#263238"/>
          <path id="Path_9031" data-name="Path 9031" d="M322.093,198.32a4.854,4.854,0,0,1-.476-.484,12.582,12.582,0,0,1-1.088-1.493,15.785,15.785,0,0,1-1.239-2.453,19.055,19.055,0,0,1-.913-3.239,18.332,18.332,0,0,1-.23-3.359,16.564,16.564,0,0,1,.341-2.731,13.361,13.361,0,0,1,.524-1.771c.159-.4.254-.627.286-.611s-.262.929-.524,2.438a18.325,18.325,0,0,0,0,5.963,17.911,17.911,0,0,0,1.993,5.613C321.561,197.526,322.141,198.272,322.093,198.32Z" fill="#263238"/>
          <path id="Path_9032" data-name="Path 9032" d="M324.872,149.546l4.248-1.715-.413,3.025-1.794,1.389,1.405,1.445-.73,5.3-3.224-4.073a2.771,2.771,0,0,1-.437-2.6Z" fill="#ffbe9d"/>
          <path id="Path_9033" data-name="Path 9033" d="M341.887,159.034l-5.169,10.29-9.7-2.136V154.921l14.371-2.461Z" fill="#ffbe9d"/>
          <path id="Path_9034" data-name="Path 9034" d="M327.564,148.982l1.024-7.416a1.143,1.143,0,0,1,.794-.929l11.632-3.9a1.135,1.135,0,0,1,1.493,1.294l-4.764,25.606a1.143,1.143,0,0,1-.9.921l-10.322,2.152a1.151,1.151,0,0,1-1.358-.9,1.111,1.111,0,0,1,0-.4Z" fill="#263238"/>
          <path id="Path_9035" data-name="Path 9035" d="M335.726,145.036a.849.849,0,1,1,.117-.64.85.85,0,0,1-.117.64Z" fill="#ebebeb"/>
          <path id="Path_9036" data-name="Path 9036" d="M342,140.645s1.739,0,1.588,2.461a19.246,19.246,0,0,1-1.588,6.5,2.04,2.04,0,0,1,0,2.144s1.286-.1,1.215,2.152a2.382,2.382,0,0,1-.31,3.351l-.1.079s1.159,1.5-.715,3.033a5.344,5.344,0,0,1-4.415.794Z" fill="#ffbe9d"/>
          <path id="Path_9037" data-name="Path 9037" d="M341.149,149.721c-1.382.921-2.938,1.8-4.168,2.811-.4.326-.857.492-1.032.985a1.12,1.12,0,0,0,.421,1.358,1.588,1.588,0,0,0,1.326-.159,23.3,23.3,0,0,0,4.272-2.882" fill="#ffbe9d"/>
          <path id="Path_9038" data-name="Path 9038" d="M341.411,152.444c-1.382.921-2.946,1.8-4.168,2.811-.4.326-.858.492-1.04.985a1.12,1.12,0,0,0,.429,1.358,1.588,1.588,0,0,0,1.318-.159,23.3,23.3,0,0,0,4.272-2.882" fill="#ffbe9d"/>
          <path id="Path_9039" data-name="Path 9039" d="M341.411,155.358c-1.382.921-2.946,1.8-4.168,2.811-.4.326-.858.492-1.032.985a1.112,1.112,0,0,0,.421,1.358,1.628,1.628,0,0,0,1.358-.151,23.358,23.358,0,0,0,4.28-2.882" fill="#ffbe9d"/>
          <path id="Path_9040" data-name="Path 9040" d="M341.879,151.912c0-.056-.992.683-2.207,1.509s-2.231,1.405-2.231,1.493a14.061,14.061,0,0,0,4.438-3Z" fill="#eb996e"/>
          <path id="Path_9041" data-name="Path 9041" d="M342.911,154.032c-.04-.056-1.135.794-2.509,1.723a24.859,24.859,0,0,0-2.493,1.763,13.442,13.442,0,0,0,2.636-1.588,14.013,14.013,0,0,0,2.366-1.9Z" fill="#eb996e"/>
          <path id="Path_9042" data-name="Path 9042" d="M342.88,157.263a16.488,16.488,0,0,0-2.43,1.405,15.04,15.04,0,0,0-2.3,1.588,16.469,16.469,0,0,0,2.438-1.405,15.325,15.325,0,0,0,2.295-1.588Z" fill="#eb996e"/>
          <path id="Path_9043" data-name="Path 9043" d="M342.3,148.99c-.048-.056-1.239.85-2.787,1.85s-2.858,1.731-2.819,1.794a3.542,3.542,0,0,0,.905-.389c.707-.365,1.389-.794,2.048-1.2a20.051,20.051,0,0,0,1.929-1.389,3.6,3.6,0,0,0,.723-.667Z" fill="#eb996e"/>
          <path id="Path_9044" data-name="Path 9044" d="M243.656,319.3l-1.207,15.6s-20.056,4.534-20.739,8.035l36.936,4.923,3.573-27.575Z" fill="#455a64"/>
          <g id="Group_6218" data-name="Group 6218" opacity="0.6">
            <path id="Path_9045" data-name="Path 9045" d="M254.073,334.821a1.516,1.516,0,0,1,.794,1.858,1.461,1.461,0,0,1-1.834.794,1.588,1.588,0,0,1-.85-1.977,1.517,1.517,0,0,1,2.009-.643" fill="#fff"/>
          </g>
          <g id="Group_6219" data-name="Group 6219" opacity="0.6">
            <path id="Path_9046" data-name="Path 9046" d="M258.647,347.858l.294-3.009-35.523-3.6s-1.739.5-1.707,1.683Z" fill="#fff"/>
          </g>
          <path id="Path_9047" data-name="Path 9047" d="M241.9,334.63c0,.183.873.381,1.683,1.08s1.183,1.524,1.358,1.469.048-1.127-.945-1.953S241.854,334.456,241.9,334.63Z" fill="#263238"/>
          <path id="Path_9048" data-name="Path 9048" d="M237.789,335.718c-.071.167.675.58,1.183,1.421s.58,1.675.794,1.691.429-.985-.222-2.025S237.812,335.543,237.789,335.718Z" fill="#263238"/>
          <path id="Path_9049" data-name="Path 9049" d="M234.97,340.061c.159.056.524-.794.2-1.858s-1.127-1.588-1.223-1.413.357.738.611,1.588S234.756,340.021,234.97,340.061Z" fill="#263238"/>
          <path id="Path_9050" data-name="Path 9050" d="M242.775,330.3c.056.175.921.04,1.929.246s1.763.627,1.874.484-.564-.881-1.755-1.112S242.7,330.168,242.775,330.3Z" fill="#263238"/>
          <path id="Path_9051" data-name="Path 9051" d="M243.219,326.468a3.47,3.47,0,0,0,1.858.238,8.566,8.566,0,0,0,2.009-.333,11.588,11.588,0,0,0,1.143-.421,2.493,2.493,0,0,0,.611-.365.794.794,0,0,0,.214-.945.953.953,0,0,0-.738-.516,2.111,2.111,0,0,0-.707,0,6.283,6.283,0,0,0-1.2.238,6.59,6.59,0,0,0-1.858.9c-.961.675-1.342,1.31-1.286,1.358s.564-.445,1.524-.977a7.391,7.391,0,0,1,1.771-.715,6.623,6.623,0,0,1,1.112-.183c.4-.056.738,0,.794.175s0,.1-.064.206a2.113,2.113,0,0,1-.453.262,11.287,11.287,0,0,1-1.056.429,11.583,11.583,0,0,1-1.882.445,12.556,12.556,0,0,0-1.794.206Z" fill="#263238"/>
          <path id="Path_9052" data-name="Path 9052" d="M243.426,326.762a3.017,3.017,0,0,0,.723-1.723,5.557,5.557,0,0,0,0-2.056,5.488,5.488,0,0,0-.318-1.191,1.524,1.524,0,0,0-1.056-1.088.865.865,0,0,0-.842.413,2.637,2.637,0,0,0-.278.651,4.144,4.144,0,0,0-.167,1.247,4.462,4.462,0,0,0,.532,2.017c.6,1.056,1.318,1.366,1.342,1.31a16.439,16.439,0,0,1-.937-1.509,4.137,4.137,0,0,1-.183-2.882c.111-.381.3-.683.445-.619a1.358,1.358,0,0,1,.564.691,5.5,5.5,0,0,1,.326,1.064,6.28,6.28,0,0,1,.111,1.89C243.609,326.071,243.331,326.722,243.426,326.762Z" fill="#263238"/>
          <path id="Path_9053" data-name="Path 9053" d="M262.219,320.283,264,308.175l-19.754-.961-.588,12.084Z" fill="#ffbe9d"/>
          <path id="Path_9054" data-name="Path 9054" d="M298.695,279.083l6.264,14.339s20.429-2.295,22.231.794l-33.276,16.777L281.481,286.11Z" fill="#455a64"/>
          <g id="Group_6220" data-name="Group 6220" opacity="0.6">
            <path id="Path_9055" data-name="Path 9055" d="M293.947,297.17a1.532,1.532,0,0,0-.159,2.025,1.477,1.477,0,0,0,2,.175,1.588,1.588,0,0,0,.159-2.144,1.509,1.509,0,0,0-2.1.048" fill="#fff"/>
          </g>
          <g id="Group_6221" data-name="Group 6221" opacity="0.6">
            <path id="Path_9056" data-name="Path 9056" d="M293.915,310.986l-1.27-2.747,32.378-15.086s1.8-.1,2.168,1.024Z" fill="#fff"/>
          </g>
          <path id="Path_9057" data-name="Path 9057" d="M305.42,292.978c.079.159-.7.643-1.231,1.588s-.619,1.818-.794,1.834-.413-1.048.254-2.16S305.372,292.819,305.42,292.978Z" fill="#263238"/>
          <path id="Path_9058" data-name="Path 9058" d="M309.652,292.668c.119.135-.445.794-.651,1.731s0,1.779-.167,1.85-.73-.794-.453-1.985S309.548,292.51,309.652,292.668Z" fill="#263238"/>
          <path id="Path_9059" data-name="Path 9059" d="M313.717,295.844c-.127.111-.794-.588-.794-1.691s.548-1.834.683-1.731-.087.794-.048,1.715S313.876,295.749,313.717,295.844Z" fill="#263238"/>
          <path id="Path_9060" data-name="Path 9060" d="M303.141,289.207c0,.183-.85.333-1.739.858s-1.453,1.183-1.588,1.08.246-1.016,1.294-1.628S303.157,289.008,303.141,289.207Z" fill="#263238"/>
          <path id="Path_9061" data-name="Path 9061" d="M301.45,285.721a3.509,3.509,0,0,1-1.667.794,8.194,8.194,0,0,1-2.017.349,10.315,10.315,0,0,1-1.215,0,2.382,2.382,0,0,1-.7-.135.794.794,0,0,1-.508-.794.985.985,0,0,1,.524-.73,2.3,2.3,0,0,1,.667-.23,6.35,6.35,0,0,1,1.215-.167,6.606,6.606,0,0,1,2.048.23c1.127.333,1.7.794,1.659.865s-.675-.23-1.763-.429a7.282,7.282,0,0,0-1.906-.087,6.694,6.694,0,0,0-1.1.191c-.4.087-.707.23-.715.437,0,.079,0,.1.127.167a2.284,2.284,0,0,0,.516.1c.381,0,.794.056,1.135.056a11.021,11.021,0,0,0,1.921-.191,11.6,11.6,0,0,1,1.779-.429Z" fill="#263238"/>
          <path id="Path_9062" data-name="Path 9062" d="M301.363,286.055c-.04.056-.659-.365-1.247-1.382a6.256,6.256,0,0,1-.691-1.945,5.765,5.765,0,0,1-.087-1.223,1.54,1.54,0,0,1,.635-1.382.857.857,0,0,1,.945.151,2.025,2.025,0,0,1,.484.524,4.264,4.264,0,0,1,.722,3.176c-.214,1.191-.794,1.731-.842,1.683a14.5,14.5,0,0,0,.4-1.739,4.209,4.209,0,0,0-.262-1.826,3.97,3.97,0,0,0-.516-.953c-.23-.326-.508-.54-.619-.445a1.1,1.1,0,0,0-.31.842,7.475,7.475,0,0,0,0,1.112,7.043,7.043,0,0,0,.516,1.826C300.958,285.467,301.45,285.991,301.363,286.055Z" fill="#263238"/>
          <path id="Path_9063" data-name="Path 9063" d="M281.481,286.11l-5.653-10.854,18.349-7.392,4.518,11.219Z" fill="#ffbe9d"/>
          <path id="Path_9064" data-name="Path 9064" d="M242.044,260.282s-7.5-1.389-8.805-4.01,5.359-31.759,13.355-48.8c8.734-18.7,27-13.077,31.354-6.495,7.662,11.536,19.635,68.917,19.635,68.917l-21.207,7.94-21.715-52.006s-4.129-2.295-7.852.524S242.044,260.282,242.044,260.282Z" fill="#2f3243"/>
          <path id="Path_9065" data-name="Path 9065" d="M268.27,309.318c-.794-.262-28,0-28,0l1.636-50.481,1.588-34.379,19.849-4.907L287,225.784s15.594,5.8,16.372,15.221a101.366,101.366,0,0,1,0,17.007,59.215,59.215,0,0,1-25.645,4.454l-5.216-2.041Z" fill="#2f3243"/>
          <path id="Path_9066" data-name="Path 9066" d="M286.96,225.8a1.675,1.675,0,0,1,.151.437c.087.333.206.746.349,1.262.294,1.151.7,2.731,1.2,4.661.992,3.97,2.295,9.417,3.716,15.451s2.747,11.5,3.716,15.451c.476,1.937.857,3.517,1.143,4.677.119.516.214.945.294,1.278a1.422,1.422,0,0,1,.071.453c-.056-.143-.111-.286-.151-.429-.1-.333-.222-.746-.373-1.262-.31-1.088-.738-2.676-1.262-4.645-1.048-3.97-2.382-9.385-3.843-15.427s-2.668-11.465-3.6-15.475c-.445-1.937-.794-3.533-1.072-4.692l-.27-1.286A2.24,2.24,0,0,1,286.96,225.8Z" fill="#455a64"/>
          <path id="Path_9067" data-name="Path 9067" d="M241.9,280.036a2.013,2.013,0,0,1,0-.31v-4.5c0-3.1,0-7.575.048-13.117s.159-12.14.429-19.46c.167-3.66.31-7.5.794-11.481a15.284,15.284,0,0,1,1.747-5.86,5.716,5.716,0,0,1,2.295-2.2,4.931,4.931,0,0,1,3.176-.381,6.987,6.987,0,0,1,2.906,1.382,9.33,9.33,0,0,1,2.08,2.382,36.886,36.886,0,0,1,2.6,5.558l4.407,10.616c2.8,6.757,5.328,12.855,7.448,17.976l4.986,12.132c.572,1.421,1.024,2.533,1.334,3.311l.341.865a1.294,1.294,0,0,1,.1.294,1.832,1.832,0,0,1-.143-.278l-.373-.85c-.333-.794-.794-1.874-1.413-3.279l-5.137-12.116c-2.144-5.113-4.692-11.2-7.527-17.944l-4.43-10.608A36.378,36.378,0,0,0,255,226.713a8.925,8.925,0,0,0-1.985-2.279,6.391,6.391,0,0,0-2.731-1.294,4.478,4.478,0,0,0-2.938.333,5.383,5.383,0,0,0-2.128,2.048,15,15,0,0,0-1.7,5.709c-.492,3.93-.635,7.781-.794,11.433-.294,7.313-.421,13.91-.516,19.445s-.143,10-.183,13.117c0,1.532-.04,2.731-.048,3.573v.929a1.473,1.473,0,0,1-.079.31Z" fill="#455a64"/>
          <path id="Path_9068" data-name="Path 9068" d="M294.233,112.181c-2.914-1.12-6.209,1.318-9.218.5-1.826-.5-3.12-2.088-4.7-3.128a9.528,9.528,0,0,0-8.456-.937c-2.612,1.1-4.335,2.382-4.875,5.129-2.2-1.485-6.233,1.127-7.741,3.819s-1.389,5.558-.865,8.631a40.979,40.979,0,0,0,5.677,14.768c.254.4.667.85,1.1.675.3-.111.429-.468.5-.794a34.354,34.354,0,0,0,.461-8.281,20.579,20.579,0,0,1,1.112-8.178c1.064-2.557,3.287-4.812,6.034-5.145a8.734,8.734,0,0,1,5.772,1.675c1.707,1.135,3.176,2.58,4.764,3.843a11.505,11.505,0,0,0,5.486,2.6,5.328,5.328,0,0,0,5.3-2.382c1.008-1.818.214-4.486-1.755-5.05a4.025,4.025,0,0,0,1.382-7.781Z" fill="#263238"/>
          <path id="Path_9069" data-name="Path 9069" d="M262.608,127.346l.715,31.068c.127,5.288,5.32,9.75,10.592,9.369h0c4.923-.357,8.019-4.883,7.9-9.814-.064-2.334-.1-4.287-.1-4.526,0,0,7.892-.929,8.289-8.734.183-3.787-.064-11.624-.365-18.714a14.641,14.641,0,0,0-14.077-13.974h-.754C266.634,112.126,262.211,119.168,262.608,127.346Z" fill="#ffbe9d"/>
          <path id="Path_9070" data-name="Path 9070" d="M281.743,153.333a18.309,18.309,0,0,1-10.123-3.271s2.207,5.74,10.06,5.328Z" fill="#eb996e"/>
          <path id="Path_9071" data-name="Path 9071" d="M287.238,131.84a1.127,1.127,0,0,1-1.127,1.1A1.088,1.088,0,0,1,285,131.888h0a1.127,1.127,0,0,1,1.12-1.1,1.072,1.072,0,0,1,1.12,1.04Z" fill="#263238"/>
          <path id="Path_9072" data-name="Path 9072" d="M287.809,129.744c-.143.143-.969-.516-2.176-.556s-2.112.524-2.239.373.1-.326.484-.6a3.081,3.081,0,0,1,1.8-.476,2.9,2.9,0,0,1,1.723.627C287.77,129.419,287.881,129.688,287.809,129.744Z" fill="#263238"/>
          <path id="Path_9073" data-name="Path 9073" d="M275.741,131.84a1.127,1.127,0,0,1-1.12,1.1,1.088,1.088,0,0,1-1.12-1.04h0a1.135,1.135,0,0,1,1.127-1.1,1.064,1.064,0,0,1,1.112,1.032Z" fill="#263238"/>
          <path id="Path_9074" data-name="Path 9074" d="M275.947,129.53c-.143.143-.969-.516-2.176-.564s-2.112.532-2.231.381.087-.326.484-.6a3.176,3.176,0,0,1,1.794-.484,2.961,2.961,0,0,1,1.723.635C275.908,129.2,276.043,129.466,275.947,129.53Z" fill="#263238"/>
          <path id="Path_9075" data-name="Path 9075" d="M280.012,138.637a7.629,7.629,0,0,1,1.977-.286c.31,0,.6-.064.659-.278a1.541,1.541,0,0,0-.167-.921l-.794-2.382a40.055,40.055,0,0,1-1.818-6.209,39.785,39.785,0,0,1,2.31,6.05c.278.794.54,1.588.794,2.382a1.739,1.739,0,0,1,.119,1.215.794.794,0,0,1-.524.429,2.383,2.383,0,0,1-.532.056,8.645,8.645,0,0,1-2.025-.056Z" fill="#263238"/>
          <path id="Path_9076" data-name="Path 9076" d="M276.416,139.335c.191,0,.151,1.3,1.231,2.279s2.485.873,2.493,1.056-.326.246-.913.238a3.287,3.287,0,0,1-2.08-.794,2.906,2.906,0,0,1-.953-1.906C276.17,139.645,276.3,139.327,276.416,139.335Z" fill="#263238"/>
          <path id="Path_9077" data-name="Path 9077" d="M276.44,124.813c-.135.326-1.334.127-2.747.246s-2.58.461-2.763.159c-.071-.143.135-.445.611-.746a4.764,4.764,0,0,1,4.192-.3C276.241,124.393,276.5,124.655,276.44,124.813Z" fill="#263238"/>
          <path id="Path_9078" data-name="Path 9078" d="M287.5,126.243c-.222.262-1.048-.048-2.041-.1s-1.85.119-2.041-.175c-.079-.143.064-.413.445-.659a2.946,2.946,0,0,1,3.287.222C287.492,125.822,287.595,126.108,287.5,126.243Z" fill="#263238"/>
          <path id="Path_9079" data-name="Path 9079" d="M263.029,133.174c-.127-.056-5.328-1.794-5.359,3.581s5.367,4.287,5.375,4.137S263.029,133.174,263.029,133.174Z" fill="#ffbe9d"/>
          <path id="Path_9080" data-name="Path 9080" d="M261.417,138.843a1.46,1.46,0,0,1-.254.143.961.961,0,0,1-.7,0,2.318,2.318,0,0,1-1.056-2.08,3.1,3.1,0,0,1,.27-1.342,1.1,1.1,0,0,1,.707-.715.476.476,0,0,1,.548.262c.072.151,0,.254.064.262s.119-.087.079-.31a.556.556,0,0,0-.214-.333.667.667,0,0,0-.516-.143,1.31,1.31,0,0,0-.977.794,3.176,3.176,0,0,0-.333,1.5,2.382,2.382,0,0,0,1.35,2.326,1.024,1.024,0,0,0,.857-.143C261.41,138.946,261.441,138.859,261.417,138.843Z" fill="#eb996e"/>
          <path id="Path_9081" data-name="Path 9081" d="M291.39,124.393a11.362,11.362,0,0,1-9.98-2.644c-1.842-1.691-3.231-4.073-5.6-4.9a6.352,6.352,0,0,0-4.9.484,12.355,12.355,0,0,0-3.819,3.263c1.366,4.041.183,8.456-1,12.553a2.12,2.12,0,0,1-.675,1.215c-.651.468-1.588.048-2.12-.548a6.8,6.8,0,0,1-1.326-3.557,22.161,22.161,0,0,1,.381-8.734,15.086,15.086,0,0,1,4.407-7.432,14.292,14.292,0,0,1,10.107-3.359,17.468,17.468,0,0,1,10,3.97,10.187,10.187,0,0,1,3.176,3.922" fill="#263238"/>
          <path id="Path_9082" data-name="Path 9082" d="M296.408,114.158a.929.929,0,0,1-.064.461,2.191,2.191,0,0,1-.794,1.08,3.47,3.47,0,0,1-2.033.6,5.741,5.741,0,0,1-1.326-.135,2.914,2.914,0,0,1-1.35-.683,1.913,1.913,0,0,1-.611-1.54,1.683,1.683,0,0,1,1.191-1.326,2.017,2.017,0,0,1,.969-.087,1.7,1.7,0,0,1,.905.453,2.445,2.445,0,0,1,.73,1.906,2.8,2.8,0,0,1-.921,1.937,4.327,4.327,0,0,1-1.985,1.024,7.059,7.059,0,0,1-4.565-.667,20.5,20.5,0,0,1-3.875-2.541,24.874,24.874,0,0,0-3.509-2.43,7.94,7.94,0,0,0-3.66-1.048,7.5,7.5,0,0,0-3.239.707,9.528,9.528,0,0,0-3.684,3.1,11.7,11.7,0,0,0-.723,1.12,4.048,4.048,0,0,1-.238.4.262.262,0,0,1,.04-.111c.04-.071.079-.183.151-.318a10.406,10.406,0,0,1,.691-1.143,9.409,9.409,0,0,1,3.684-3.216,7.654,7.654,0,0,1,3.319-.754,8.019,8.019,0,0,1,3.763,1.04,24.731,24.731,0,0,1,3.557,2.438,20.709,20.709,0,0,0,3.835,2.509,6.844,6.844,0,0,0,4.391.651,4.041,4.041,0,0,0,1.866-.961,2.525,2.525,0,0,0,.85-1.763,2.176,2.176,0,0,0-.643-1.723,1.588,1.588,0,0,0-1.644-.318,1.437,1.437,0,0,0-1.056,1.135,1.715,1.715,0,0,0,.54,1.382,2.739,2.739,0,0,0,1.254.659,5.916,5.916,0,0,0,1.286.143,3.358,3.358,0,0,0,1.969-.524,2.167,2.167,0,0,0,.794-1.016A3.114,3.114,0,0,0,296.408,114.158Z" fill="#455a64"/>
          <path id="Path_9083" data-name="Path 9083" d="M258.115,122.146a9.385,9.385,0,0,0,1.588.484,4.629,4.629,0,0,0,1.81-.119,7.8,7.8,0,0,0,2.041-.889,6.193,6.193,0,0,0,2.509-3.1,10.956,10.956,0,0,0,.421-1.651,1.168,1.168,0,0,1,0,.468,5.13,5.13,0,0,1-.254,1.239,6.1,6.1,0,0,1-2.549,3.271,7.32,7.32,0,0,1-2.128.905,4.764,4.764,0,0,1-1.89.071,4.358,4.358,0,0,1-1.207-.421,1.73,1.73,0,0,1-.341-.254Z" fill="#455a64"/>
          <path id="Path_9084" data-name="Path 9084" d="M258.2,126.036c0-.048.635.111,1.644.1a7.678,7.678,0,0,0,3.748-1.072,7.5,7.5,0,0,0,2.668-2.835c.484-.889.627-1.517.675-1.5a1.222,1.222,0,0,1-.079.445,6.026,6.026,0,0,1-.429,1.143,7.146,7.146,0,0,1-2.7,2.969,7.329,7.329,0,0,1-3.883,1.04,6.352,6.352,0,0,1-1.215-.151A1.683,1.683,0,0,1,258.2,126.036Z" fill="#455a64"/>
          <path id="Path_9085" data-name="Path 9085" d="M271.755,134.508a.167.167,0,0,1-.159-.127.143.143,0,0,1,.111-.159h0a.127.127,0,0,1,.151.1h0a.143.143,0,0,1-.1.191Z" fill="#eb996e"/>
          <path id="Path_9086" data-name="Path 9086" d="M274.074,134.071a.175.175,0,0,1-.048-.333.167.167,0,0,1,.151.191.151.151,0,0,1-.1.143Z" fill="#eb996e"/>
          <path id="Path_9087" data-name="Path 9087" d="M275.63,134.087c-.071,0-.143-.087-.151-.206s0-.222.111-.222.143.079.151.2S275.7,134.079,275.63,134.087Z" fill="#eb996e"/>
          <path id="Path_9088" data-name="Path 9088" d="M272.867,135.993c-.079,0-.135-.04-.135-.087s.064-.087.135-.079.135.04.135.087S272.906,136,272.867,135.993Z" fill="#eb996e"/>
          <path id="Path_9089" data-name="Path 9089" d="M274.963,135.58a.143.143,0,0,1-.143-.143.135.135,0,0,1,.135-.135.127.127,0,0,1,.135.135h0A.143.143,0,0,1,274.963,135.58Z" fill="#eb996e"/>
          <path id="Path_9090" data-name="Path 9090" d="M286.007,134.683a.154.154,0,0,1-.048-.3.135.135,0,0,1,.151.127.143.143,0,0,1-.1.175Z" fill="#eb996e"/>
          <path id="Path_9091" data-name="Path 9091" d="M287.579,134.6a.159.159,0,0,1-.143-.159.151.151,0,0,1,.127-.175.159.159,0,0,1,.143.159.143.143,0,0,1-.127.175Z" fill="#eb996e"/>
          <path id="Path_9092" data-name="Path 9092" d="M284.618,134.667a.119.119,0,0,1-.151-.071.111.111,0,0,1,.071-.151h.04a.119.119,0,1,1,.056.23Z" fill="#eb996e"/>
          <path id="Path_9093" data-name="Path 9093" d="M285.721,136.279a.135.135,0,0,1-.167-.087h0A.151.151,0,0,1,285.6,136a.127.127,0,0,1,.183.048.064.064,0,0,1,0,.04.135.135,0,0,1-.064.191Z" fill="#eb996e"/>
          <path id="Path_9094" data-name="Path 9094" d="M287.071,136.064a.117.117,0,1,1,.072-.222h0a.119.119,0,0,1,.1.151.143.143,0,0,1-.167.071Z" fill="#eb996e"/>
          <path id="Path_9095" data-name="Path 9095" d="M237.463,228.666a111.82,111.82,0,0,0-6.137-9.806c-4.518-.23-6.034,1.159-7.884,3.779,0,0,.476,8.853.476,9.067s1.636,8.869,1.636,8.869a2.064,2.064,0,0,0,1.477,1.374c1.207.318-.294-7.273-.294-7.273l1.929,5.105v.373s.064,3.97.6,4.812a1.516,1.516,0,0,0,1.524.842c.254,0,.31-3.073.476-5.852l-.738-4.478,1.794,4.272s-.262,4.645.238,5.709,2.1,1.08,2.1.492.071-2.636.151-4.494a35.379,35.379,0,0,0-.5-5.343l1.374,4.359.54,4.018c.318.206,1.35.707,1.636.056a29.289,29.289,0,0,0,.365-3.906c-.056-1.159-.524-4.422-.524-4.422a4.652,4.652,0,0,0,2.422,1.763c1.477.333,1.691-.286,1.691-.286Z" fill="#ffbe9d"/>
          <path id="Path_9096" data-name="Path 9096" d="M236.709,232.4a30.172,30.172,0,0,1,1.628,8.591,31.568,31.568,0,0,1-.913-4.28A32.99,32.99,0,0,1,236.709,232.4Z" fill="#eb996e"/>
          <path id="Path_9097" data-name="Path 9097" d="M234.756,221.957a2.937,2.937,0,0,1-.476-.564,8.432,8.432,0,0,0-1.318-1.445,4.145,4.145,0,0,0-2.588-1.04,6.137,6.137,0,0,0-3.343.857,11.219,11.219,0,0,0-4.526,4.478,7.289,7.289,0,0,0-.6,2.6,1.771,1.771,0,0,1-.1-.73,5.264,5.264,0,0,1,.429-1.977,10.8,10.8,0,0,1,4.581-4.764,6.415,6.415,0,0,1,3.573-.873,4.327,4.327,0,0,1,2.763,1.2,7.575,7.575,0,0,1,1.254,1.588,2.081,2.081,0,0,1,.341.675Z" fill="#263238"/>
        </g>
        <g id="freepik--Plant--inject-159">
          <path id="Path_9098" data-name="Path 9098" d="M27.464,287.881a9.1,9.1,0,0,0-4.716-6.034c-2.422-1.048-5.447-.468-8.027.468s-5.113,2.191-7.852,2.382-5.836-1.135-6.654-3.756c-.794-2.461.715-5.089,2.572-6.876a16.245,16.245,0,0,1,26.606,6.352" fill="#f55a66"/>
          <g id="Group_6222" data-name="Group 6222" opacity="0.5">
            <path id="Path_9099" data-name="Path 9099" d="M27.464,287.881a9.1,9.1,0,0,0-4.716-6.034c-2.422-1.048-5.447-.468-8.027.468s-5.113,2.191-7.852,2.382-5.836-1.135-6.654-3.756c-.794-2.461.715-5.089,2.572-6.876a16.245,16.245,0,0,1,26.606,6.352"/>
          </g>
          <path id="Path_9100" data-name="Path 9100" d="M49.179,298.885c4.018-3.819,3.819-10.465,1.81-15.633s-6.352-9.147-11.267-11.759a35.729,35.729,0,0,0-31.116-1.008,14.76,14.76,0,0,1,11.91,7.011c2.207,3.66,2.692,8.1,4.51,11.965a18.849,18.849,0,0,0,24.121,9.425" fill="#f55a66"/>
          <path id="Path_9101" data-name="Path 9101" d="M51.108,275.939c4.454-5.256,5.05-13.688,4.391-20.54s-2.247-13.76-1.159-20.556c.635-4.033,2.2-7.876,2.731-11.91s-.222-8.615-3.359-11.227c-3.6-3-9.274-2.295-13.021.524s-5.923,7.241-7.511,11.656c-3.486,9.694-4.764,20.445-1.9,30.338s9.583,18.746,19.445,21.731" fill="#f55a66"/>
          <path id="Path_9102" data-name="Path 9102" d="M53.244,319.052a2.557,2.557,0,0,0,0-.6V316.71c-.056-1.509-.2-3.684-.54-6.352A82.1,82.1,0,0,0,51,301.045a42.566,42.566,0,0,0-4.256-10.79,44.122,44.122,0,0,0-6.947-9.29,43.551,43.551,0,0,0-7.3-6.034,36.279,36.279,0,0,0-3.12-1.9c-.929-.54-1.794-.945-2.453-1.278l-1.588-.675a3.745,3.745,0,0,0-.564-.214,2.9,2.9,0,0,0,.54.278l1.588.738c.667.349,1.485.794,2.382,1.286a31.989,31.989,0,0,1,3.065,1.929,45.741,45.741,0,0,1,14.061,15.316c4.089,7.146,5.216,14.689,6.026,19.969.365,2.66.556,4.835.651,6.352.048.723.079,1.3.1,1.731A4.9,4.9,0,0,0,53.244,319.052Z" fill="#263238"/>
          <path id="Path_9103" data-name="Path 9103" d="M91.641,255.209c8.234,4.97,8.21,9.528,6.836,13.768s-6.431,7.233-10.623,5.637c-2.382-.905-4.081-2.969-5.558-5.034s-2.842-4.287-4.9-5.772-5.026-2.056-7.09-.58" fill="#f55a66"/>
          <g id="Group_6223" data-name="Group 6223" opacity="0.5">
            <path id="Path_9104" data-name="Path 9104" d="M91.641,255.209c8.234,4.97,8.21,9.528,6.836,13.768s-6.431,7.233-10.623,5.637c-2.382-.905-4.081-2.969-5.558-5.034s-2.842-4.287-4.9-5.772-5.026-2.056-7.09-.58"/>
          </g>
          <path id="Path_9105" data-name="Path 9105" d="M97.81,260.639c-2.16-2.977-7.479-3.843-10.838-2.382s-5.82,4.43-8.019,7.368-4.343,6.042-7.4,8.091-7.313,2.787-10.322.723a8.956,8.956,0,0,1-3.517-6.074,20.643,20.643,0,0,1,.484-7.146c.73-3.454,1.913-7.059,4.677-9.258,3.081-2.445,7.36-2.557,11.29-2.43,4.51.143,9.091.484,13.323,2.048s8.551,4.939,10.322,9.083" fill="#f55a66"/>
          <path id="Path_9106" data-name="Path 9106" d="M60.136,312.454v-.715c0-.492,0-1.175.071-2.041.048-1.8.127-4.367.214-7.519s.23-6.947.461-11.116.54-8.8,1.175-13.593a45.329,45.329,0,0,1,1.366-6.9,35.887,35.887,0,0,1,2.525-6.034,34.561,34.561,0,0,1,3.176-5,32.385,32.385,0,0,1,3.478-3.819,25.646,25.646,0,0,1,6.161-4.2l1.072-.492.794-.31.492-.2.167-.079-.175.04-.508.167-.794.278c-.326.119-.683.294-1.088.468a24.669,24.669,0,0,0-6.28,4.137,32.352,32.352,0,0,0-3.541,3.827,34.809,34.809,0,0,0-3.247,5.042,35.965,35.965,0,0,0-2.565,6.09A43.318,43.318,0,0,0,61.7,277.44c-.635,4.811-.937,9.432-1.151,13.625s-.31,7.94-.381,11.116-.087,5.748-.1,7.527v2.572a.54.54,0,0,0,.064.175Z" fill="#263238"/>
          <path id="Path_9107" data-name="Path 9107" d="M57.166,316.218a22.939,22.939,0,0,0,.905-3.541,36.849,36.849,0,0,0,.373-9.933,65.385,65.385,0,0,0-3.176-14.419c-1.691-5.3-3.97-10.965-5.947-17.055a80.627,80.627,0,0,1-2.382-9.02,82.863,82.863,0,0,1-1.175-8.615,130.1,130.1,0,0,1-.262-14.72c.143-4.2.365-7.59.508-9.933.064-1.151.119-2.056.159-2.7v-.7a.643.643,0,0,0,0-.246,1.191,1.191,0,0,0,0,.238,3.013,3.013,0,0,1-.064.7c-.056.643-.135,1.548-.23,2.7-.183,2.342-.445,5.733-.619,9.933a122.086,122.086,0,0,0,.183,14.76,80.4,80.4,0,0,0,1.2,8.607,77.677,77.677,0,0,0,2.382,9.067c1.969,6.114,4.272,11.775,5.971,17.047a66.154,66.154,0,0,1,3.176,14.339,38.159,38.159,0,0,1-.262,9.885c-.2,1.159-.389,2.048-.548,2.644-.071.286-.127.508-.167.683Q57.172,316.078,57.166,316.218Z" fill="#263238"/>
          <path id="Path_9108" data-name="Path 9108" d="M36.714,319.9H75.38l.881-7.448H36.714Z" fill="#455a64"/>
          <path id="Path_9109" data-name="Path 9109" d="M71.228,319.052,66.4,341.379H45.384l-4.526-22.327Z" fill="#455a64"/>
          <path id="Path_9110" data-name="Path 9110" d="M36.714,319.9c0,.1,8.5.159,18.984.127s18.992-.135,18.992-.238-8.5-.159-18.992-.127S36.714,319.8,36.714,319.9Z" fill="#455a64"/>
          <path id="Path_9111" data-name="Path 9111" d="M43.351,330.922a15.277,15.277,0,0,1,3.406-1.953,12.116,12.116,0,0,1,4.137-.834,14.665,14.665,0,0,1,5.089.937c1.763.6,3.414,1.286,5.018,1.667a11.838,11.838,0,0,0,4.327.135,9,9,0,0,0,2.787-.881,4.762,4.762,0,0,0,.667-.429c.151-.111.222-.167.214-.183s-.333.191-.945.484a9.71,9.71,0,0,1-2.755.746,12.2,12.2,0,0,1-4.224-.2c-1.588-.389-3.176-1.088-4.97-1.691a14.435,14.435,0,0,0-5.216-.929,11.91,11.91,0,0,0-4.248.913,10.813,10.813,0,0,0-2.517,1.469,5.307,5.307,0,0,0-.6.516A1.623,1.623,0,0,0,43.351,330.922Z" fill="#263238"/>
          <path id="Path_9112" data-name="Path 9112" d="M43.669,332.415a16.443,16.443,0,0,1,3.271-1.906,10.989,10.989,0,0,1,3.97-.794,14.513,14.513,0,0,1,4.931.889c1.7.572,3.3,1.231,4.827,1.644a12.292,12.292,0,0,0,4.16.46,7.083,7.083,0,0,0,2.731-.723,5.01,5.01,0,0,0,.651-.413c.143-.111.206-.167.2-.183s-.318.191-.913.46a7.424,7.424,0,0,1-2.684.6,12.767,12.767,0,0,1-4.057-.54c-1.493-.421-3.081-1.08-4.764-1.659a14.205,14.205,0,0,0-5.05-.873,10.806,10.806,0,0,0-4.1.913,10.219,10.219,0,0,0-2.382,1.461c-.262.206-.453.381-.58.5A2.562,2.562,0,0,1,43.669,332.415Z" fill="#fff"/>
          <path id="Path_9113" data-name="Path 9113" d="M42.962,329.438a18.657,18.657,0,0,1,3.5-2.056,12.854,12.854,0,0,1,4.24-1.056,13.832,13.832,0,0,1,5.256.929,49.533,49.533,0,0,0,5.177,1.723,13.205,13.205,0,0,0,4.47,0,10.108,10.108,0,0,0,2.874-.905,5.72,5.72,0,0,0,.7-.437c.151-.111.222-.175.214-.183s-.341.2-.977.484a11.022,11.022,0,0,1-2.85.794,13.443,13.443,0,0,1-4.367-.087q-2.6-.73-5.137-1.707a13.577,13.577,0,0,0-5.391-.913,13.069,13.069,0,0,0-6.908,2.668,6.551,6.551,0,0,0-.619.54A1.216,1.216,0,0,0,42.962,329.438Z" fill="#fff"/>
          <path id="Path_9114" data-name="Path 9114" d="M36.372,319.973c0,.1,8.734.183,19.421.183s19.429-.079,19.429-.183-8.734-.191-19.429-.191S36.372,319.831,36.372,319.973Z" fill="#263238"/>
        </g>
      </g>
    </g>
  </g>
</svg>
